<?xml version="1.0" encoding="UTF-8"?>
<svg version="1.1" xmlns="http://www.w3.org/2000/svg" width="512" height="512">
<path d="M0 0 C1.36868225 -0.00525696 1.36868225 -0.00525696 2.76501465 -0.01062012 C5.78612845 -0.0194345 8.80700875 -0.01358927 11.828125 -0.00683594 C13.9241541 -0.00818267 16.0201829 -0.01012327 18.11621094 -0.01263428 C22.51109793 -0.01558514 26.90590369 -0.01128906 31.30078125 -0.00195312 C36.94023098 0.00944135 42.57949036 0.00288168 48.21893311 -0.00909805 C52.54770345 -0.01631763 56.8764285 -0.01402826 61.2052002 -0.00884247 C63.28487165 -0.00750625 65.36454718 -0.00915273 67.44421387 -0.01380157 C70.34833706 -0.01886836 73.25214997 -0.01115433 76.15625 0 C77.01972046 -0.00404846 77.88319092 -0.00809692 78.77282715 -0.01226807 C84.73532887 0.03025831 84.73532887 0.03025831 88.078125 2.25878906 C88.40625 4.82519531 88.40625 4.82519531 88.328125 7.82128906 C88.31265625 8.81257813 88.2971875 9.80386719 88.28125 10.82519531 C88.078125 13.25878906 88.078125 13.25878906 87.078125 14.25878906 C85.5000098 14.46920442 83.91477122 14.62735091 82.328125 14.75878906 C78.85000261 15.07271701 75.48578834 15.46366762 72.078125 16.25878906 C72.078125 16.91878906 72.078125 17.57878906 72.078125 18.25878906 C71.418125 18.25878906 70.758125 18.25878906 70.078125 18.25878906 C70.42808356 24.93213685 71.08160947 30.265758 74.078125 36.25878906 C75.68645344 39.8140414 76.30168383 42.34650954 76.078125 46.25878906 C76.738125 46.25878906 77.398125 46.25878906 78.078125 46.25878906 C79.68167601 49.76655691 80.29849364 52.40233785 80.078125 56.25878906 C80.738125 56.25878906 81.398125 56.25878906 82.078125 56.25878906 C83.68167601 59.76655691 84.29849364 62.40233785 84.078125 66.25878906 C84.738125 66.25878906 85.398125 66.25878906 86.078125 66.25878906 C86.078125 67.57878906 86.078125 68.89878906 86.078125 70.25878906 C86.738125 70.25878906 87.398125 70.25878906 88.078125 70.25878906 C88.078125 72.23878906 88.078125 74.21878906 88.078125 76.25878906 C88.738125 76.25878906 89.398125 76.25878906 90.078125 76.25878906 C90.078125 77.57878906 90.078125 78.89878906 90.078125 80.25878906 C90.738125 80.25878906 91.398125 80.25878906 92.078125 80.25878906 C93.39439192 83.87852308 94.078125 86.35446037 94.078125 90.25878906 C94.738125 90.25878906 95.398125 90.25878906 96.078125 90.25878906 C97.39439192 93.87852308 98.078125 96.35446037 98.078125 100.25878906 C98.738125 100.25878906 99.398125 100.25878906 100.078125 100.25878906 C101.39439192 103.87852308 102.078125 106.35446037 102.078125 110.25878906 C102.738125 110.25878906 103.398125 110.25878906 104.078125 110.25878906 C105.68167601 113.76655691 106.29849364 116.40233785 106.078125 120.25878906 C106.738125 120.25878906 107.398125 120.25878906 108.078125 120.25878906 C109.68167601 123.76655691 110.29849364 126.40233785 110.078125 130.25878906 C110.738125 130.25878906 111.398125 130.25878906 112.078125 130.25878906 C113.068125 132.56878906 114.058125 134.87878906 115.078125 137.25878906 C115.408125 135.60878906 115.738125 133.95878906 116.078125 132.25878906 C116.738125 132.25878906 117.398125 132.25878906 118.078125 132.25878906 C118.078125 130.93878906 118.078125 129.61878906 118.078125 128.25878906 C118.738125 128.25878906 119.398125 128.25878906 120.078125 128.25878906 C120.036875 127.53691406 119.995625 126.81503906 119.953125 126.07128906 C120.08733805 123.05149537 120.82983119 120.98943177 122.078125 118.25878906 C122.738125 118.25878906 123.398125 118.25878906 124.078125 118.25878906 C124.036875 117.53691406 123.995625 116.81503906 123.953125 116.07128906 C124.08733805 113.05149537 124.82983119 110.98943177 126.078125 108.25878906 C126.738125 108.25878906 127.398125 108.25878906 128.078125 108.25878906 C128.078125 106.93878906 128.078125 105.61878906 128.078125 104.25878906 C128.738125 104.25878906 129.398125 104.25878906 130.078125 104.25878906 C130.078125 102.27878906 130.078125 100.29878906 130.078125 98.25878906 C130.738125 98.25878906 131.398125 98.25878906 132.078125 98.25878906 C132.078125 96.93878906 132.078125 95.61878906 132.078125 94.25878906 C132.738125 94.25878906 133.398125 94.25878906 134.078125 94.25878906 C134.036875 93.53691406 133.995625 92.81503906 133.953125 92.07128906 C134.08733805 89.05149537 134.82983119 86.98943177 136.078125 84.25878906 C136.738125 84.25878906 137.398125 84.25878906 138.078125 84.25878906 C138.2225 83.53691406 138.366875 82.81503906 138.515625 82.07128906 C139.03645833 79.4671224 139.55729167 76.86295573 140.078125 74.25878906 C140.738125 74.25878906 141.398125 74.25878906 142.078125 74.25878906 C142.078125 72.93878906 142.078125 71.61878906 142.078125 70.25878906 C142.738125 70.25878906 143.398125 70.25878906 144.078125 70.25878906 C144.078125 69.59878906 144.078125 68.93878906 144.078125 68.25878906 C143.418125 68.25878906 142.758125 68.25878906 142.078125 68.25878906 C140.47457399 64.75102122 139.85775636 62.11524027 140.078125 58.25878906 C139.418125 58.25878906 138.758125 58.25878906 138.078125 58.25878906 C136.76185808 54.63905504 136.078125 52.16311775 136.078125 48.25878906 C135.418125 48.25878906 134.758125 48.25878906 134.078125 48.25878906 C134.078125 46.27878906 134.078125 44.29878906 134.078125 42.25878906 C133.418125 42.25878906 132.758125 42.25878906 132.078125 42.25878906 C132.078125 40.93878906 132.078125 39.61878906 132.078125 38.25878906 C131.418125 38.25878906 130.758125 38.25878906 130.078125 38.25878906 C129.81257812 37.57171875 129.54703125 36.88464844 129.2734375 36.17675781 C128.74363281 34.82517578 128.74363281 34.82517578 128.203125 33.44628906 C127.85507813 32.55296875 127.50703125 31.65964844 127.1484375 30.73925781 C126.08980345 28.08167315 126.08980345 28.08167315 124.078125 25.25878906 C124.078125 24.26878906 124.078125 23.27878906 124.078125 22.25878906 C123.418125 22.25878906 122.758125 22.25878906 122.078125 22.25878906 C122.078125 21.59878906 122.078125 20.93878906 122.078125 20.25878906 C121.418125 20.25878906 120.758125 20.25878906 120.078125 20.25878906 C120.078125 19.59878906 120.078125 18.93878906 120.078125 18.25878906 C119.418125 18.25878906 118.758125 18.25878906 118.078125 18.25878906 C118.078125 17.59878906 118.078125 16.93878906 118.078125 16.25878906 C116.098125 16.25878906 114.118125 16.25878906 112.078125 16.25878906 C112.078125 15.59878906 112.078125 14.93878906 112.078125 14.25878906 C111.29566406 14.27039063 110.51320312 14.28199219 109.70703125 14.29394531 C108.69511719 14.30296875 107.68320313 14.31199219 106.640625 14.32128906 C105.63128906 14.33289063 104.62195313 14.34449219 103.58203125 14.35644531 C101.078125 14.25878906 101.078125 14.25878906 100.078125 13.25878906 C99.92720587 11.45066182 99.85643492 9.63548289 99.828125 7.82128906 C99.78945313 6.33822266 99.78945313 6.33822266 99.75 4.82519531 C99.91242188 3.55482422 99.91242188 3.55482422 100.078125 2.25878906 C103.19637065 0.17995863 103.87384183 0.00829106 107.41163635 0.00482178 C108.2963562 -0.00081787 109.18107605 -0.00645752 110.09260559 -0.01226807 C111.06050522 -0.0082196 112.02840485 -0.00417114 113.02563477 0 C114.04698517 -0.00350464 115.06833557 -0.00700928 116.12063599 -0.01062012 C119.50366978 -0.01943774 122.88649525 -0.01358852 126.26953125 -0.00683594 C128.61457866 -0.00818247 130.95962579 -0.01012291 133.30467224 -0.01263428 C138.22161515 -0.0155855 143.13848545 -0.01128751 148.05541992 -0.00195312 C154.36980491 0.00944762 160.68402001 0.0028779 166.99839878 -0.00909805 C171.84097076 -0.01631132 176.68350219 -0.01403129 181.52607536 -0.00884247 C183.85498004 -0.00750482 186.18388835 -0.00915769 188.51278877 -0.01380157 C191.76196225 -0.0188587 195.01085714 -0.01116823 198.26000977 0 C199.71489555 -0.00607269 199.71489555 -0.00607269 201.19917297 -0.01226807 C202.081073 -0.00662842 202.96297302 -0.00098877 203.87159729 0.00482178 C205.02444639 0.00595285 205.02444639 0.00595285 206.20058537 0.00710678 C208.078125 0.25878906 208.078125 0.25878906 210.078125 2.25878906 C210.2734375 5.07910156 210.2734375 5.07910156 210.203125 8.38378906 C210.18507813 9.47949219 210.16703125 10.57519531 210.1484375 11.70410156 C210.11363281 12.96867187 210.11363281 12.96867187 210.078125 14.25878906 C209.15128906 14.319375 208.22445313 14.37996094 207.26953125 14.44238281 C206.07199219 14.52617188 204.87445313 14.60996094 203.640625 14.69628906 C201.84818359 14.81810547 201.84818359 14.81810547 200.01953125 14.94238281 C197.19242256 14.9353502 197.19242256 14.9353502 196.078125 16.25878906 C194.07854136 16.29959689 192.07767246 16.30133263 190.078125 16.25878906 C190.078125 16.91878906 190.078125 17.57878906 190.078125 18.25878906 C189.418125 18.25878906 188.758125 18.25878906 188.078125 18.25878906 C188.078125 20.89878906 188.078125 23.53878906 188.078125 26.25878906 C188.738125 26.25878906 189.398125 26.25878906 190.078125 26.25878906 C190.078125 28.23878906 190.078125 30.21878906 190.078125 32.25878906 C190.738125 32.25878906 191.398125 32.25878906 192.078125 32.25878906 C192.28308594 32.9690625 192.48804688 33.67933594 192.69921875 34.41113281 C193.10333984 35.78978516 193.10333984 35.78978516 193.515625 37.19628906 C193.91587891 38.57107422 193.91587891 38.57107422 194.32421875 39.97363281 C194.86838551 42.19903837 194.86838551 42.19903837 196.078125 43.25878906 C196.11876332 44.92496021 196.120846 46.59267001 196.078125 48.25878906 C196.738125 48.25878906 197.398125 48.25878906 198.078125 48.25878906 C199.68167601 51.76655691 200.29849364 54.40233785 200.078125 58.25878906 C200.738125 58.25878906 201.398125 58.25878906 202.078125 58.25878906 C202.078125 60.23878906 202.078125 62.21878906 202.078125 64.25878906 C202.738125 64.25878906 203.398125 64.25878906 204.078125 64.25878906 C205.68167601 67.76655691 206.29849364 70.40233785 206.078125 74.25878906 C206.738125 74.25878906 207.398125 74.25878906 208.078125 74.25878906 C209.68167601 77.76655691 210.29849364 80.40233785 210.078125 84.25878906 C210.738125 84.25878906 211.398125 84.25878906 212.078125 84.25878906 C212.078125 86.23878906 212.078125 88.21878906 212.078125 90.25878906 C212.738125 90.25878906 213.398125 90.25878906 214.078125 90.25878906 C215.68167601 93.76655691 216.29849364 96.40233785 216.078125 100.25878906 C216.738125 100.25878906 217.398125 100.25878906 218.078125 100.25878906 C219.68167601 103.76655691 220.29849364 106.40233785 220.078125 110.25878906 C220.738125 110.25878906 221.398125 110.25878906 222.078125 110.25878906 C222.078125 112.23878906 222.078125 114.21878906 222.078125 116.25878906 C222.738125 116.25878906 223.398125 116.25878906 224.078125 116.25878906 C225.68167601 119.76655691 226.29849364 122.40233785 226.078125 126.25878906 C226.738125 126.25878906 227.398125 126.25878906 228.078125 126.25878906 C228.408125 127.90878906 228.738125 129.55878906 229.078125 131.25878906 C230.563125 127.79378906 230.563125 127.79378906 232.078125 124.25878906 C232.738125 124.25878906 233.398125 124.25878906 234.078125 124.25878906 C234.078125 122.27878906 234.078125 120.29878906 234.078125 118.25878906 C234.738125 118.25878906 235.398125 118.25878906 236.078125 118.25878906 C236.01625 117.17597656 236.01625 117.17597656 235.953125 116.07128906 C236.08733805 113.05149537 236.82983119 110.98943177 238.078125 108.25878906 C238.738125 108.25878906 239.398125 108.25878906 240.078125 108.25878906 C240.078125 106.27878906 240.078125 104.29878906 240.078125 102.25878906 C240.738125 102.25878906 241.398125 102.25878906 242.078125 102.25878906 C242.2225 101.53691406 242.366875 100.81503906 242.515625 100.07128906 C243.03645833 97.4671224 243.55729167 94.86295573 244.078125 92.25878906 C244.738125 92.25878906 245.398125 92.25878906 246.078125 92.25878906 C245.9853125 91.20691406 245.9853125 91.20691406 245.890625 90.13378906 C246.12181241 86.58891543 247.44697623 84.3905947 249.078125 81.25878906 C249.77719914 78.52306321 249.77719914 78.52306321 250.078125 76.25878906 C250.738125 76.25878906 251.398125 76.25878906 252.078125 76.25878906 C252.01625 75.17597656 252.01625 75.17597656 251.953125 74.07128906 C252.08733805 71.05149537 252.82983119 68.98943177 254.078125 66.25878906 C254.738125 66.25878906 255.398125 66.25878906 256.078125 66.25878906 C256.078125 64.27878906 256.078125 62.29878906 256.078125 60.25878906 C256.738125 60.25878906 257.398125 60.25878906 258.078125 60.25878906 C258.01625 59.17597656 258.01625 59.17597656 257.953125 58.07128906 C258.08733805 55.05149537 258.82983119 52.98943177 260.078125 50.25878906 C260.738125 50.25878906 261.398125 50.25878906 262.078125 50.25878906 C262.078125 48.27878906 262.078125 46.29878906 262.078125 44.25878906 C262.738125 44.25878906 263.398125 44.25878906 264.078125 44.25878906 C263.9853125 43.23785156 263.9853125 43.23785156 263.890625 42.19628906 C264.08732201 39.11470263 265.04634017 37.19241252 266.34375 34.43847656 C267.87190007 29.9027971 267.85192365 25.00901735 268.078125 20.25878906 C267.418125 20.25878906 266.758125 20.25878906 266.078125 20.25878906 C266.078125 19.59878906 266.078125 18.93878906 266.078125 18.25878906 C265.418125 18.25878906 264.758125 18.25878906 264.078125 18.25878906 C264.078125 17.59878906 264.078125 16.93878906 264.078125 16.25878906 C263.27375 16.27941406 262.469375 16.30003906 261.640625 16.32128906 C259.078125 16.25878906 259.078125 16.25878906 258.078125 15.25878906 C256.39628552 15.02591898 254.7068834 14.8461474 253.015625 14.69628906 C252.09652344 14.6125 251.17742187 14.52871094 250.23046875 14.44238281 C249.52019531 14.38179687 248.80992187 14.32121094 248.078125 14.25878906 C248.05126562 12.1130227 248.03179412 9.96716261 248.015625 7.82128906 C248.00402344 6.62632813 247.99242187 5.43136719 247.98046875 4.20019531 C248.078125 1.25878906 248.078125 1.25878906 249.078125 0.25878906 C250.87246509 0.15456267 252.6709097 0.12024817 254.46826172 0.11352539 C255.61970673 0.10714554 256.77115173 0.10076569 257.95748901 0.0941925 C259.21159576 0.09307968 260.46570251 0.09196686 261.7578125 0.09082031 C263.03665314 0.08749191 264.31549377 0.08416351 265.63308716 0.08073425 C268.345081 0.07473643 271.05704295 0.07289496 273.76904297 0.07348633 C277.24503309 0.07358786 280.72081854 0.05994762 284.19676018 0.04271412 C287.50878088 0.02892124 290.82076342 0.02950528 294.1328125 0.02832031 C296.00789993 0.01754204 296.00789993 0.01754204 297.92086792 0.00654602 C299.07861725 0.00962265 300.23636658 0.01269928 301.42919922 0.01586914 C302.44988495 0.01444412 303.47057068 0.0130191 304.52218628 0.0115509 C307.078125 0.25878906 307.078125 0.25878906 310.078125 2.25878906 C310.37109375 4.86035156 310.37109375 4.86035156 310.265625 7.88378906 C310.23855469 8.88667969 310.21148437 9.88957031 310.18359375 10.92285156 C310.13138672 12.07914063 310.13138672 12.07914063 310.078125 13.25878906 C308.83149169 13.76712497 307.58063113 14.26510051 306.328125 14.75878906 C305.63203125 15.03722656 304.9359375 15.31566406 304.21875 15.60253906 C302.078125 16.25878906 302.078125 16.25878906 298.078125 16.25878906 C298.078125 16.91878906 298.078125 17.57878906 298.078125 18.25878906 C297.418125 18.25878906 296.758125 18.25878906 296.078125 18.25878906 C296.078125 18.91878906 296.078125 19.57878906 296.078125 20.25878906 C295.418125 20.25878906 294.758125 20.25878906 294.078125 20.25878906 C293.94535156 20.83113281 293.81257813 21.40347656 293.67578125 21.99316406 C293.08432183 24.23529781 292.34523646 26.34458525 291.515625 28.50878906 C291.11150391 29.56839844 291.11150391 29.56839844 290.69921875 30.64941406 C290.39177734 31.44605469 290.39177734 31.44605469 290.078125 32.25878906 C289.418125 32.25878906 288.758125 32.25878906 288.078125 32.25878906 C288.14 33.34160156 288.14 33.34160156 288.203125 34.44628906 C288.06891195 37.46608276 287.32641881 39.52814636 286.078125 42.25878906 C285.418125 42.25878906 284.758125 42.25878906 284.078125 42.25878906 C284.14 43.34160156 284.14 43.34160156 284.203125 44.44628906 C284.06891195 47.46608276 283.32641881 49.52814636 282.078125 52.25878906 C281.418125 52.25878906 280.758125 52.25878906 280.078125 52.25878906 C280.078125 54.23878906 280.078125 56.21878906 280.078125 58.25878906 C279.418125 58.25878906 278.758125 58.25878906 278.078125 58.25878906 C277.93375 58.98066406 277.789375 59.70253906 277.640625 60.44628906 C277.11979167 63.05045573 276.59895833 65.6546224 276.078125 68.25878906 C275.418125 68.25878906 274.758125 68.25878906 274.078125 68.25878906 C274.1709375 69.31066406 274.1709375 69.31066406 274.265625 70.38378906 C274.03443759 73.9286627 272.70927377 76.12698343 271.078125 79.25878906 C270.37905086 81.99451491 270.37905086 81.99451491 270.078125 84.25878906 C269.418125 84.25878906 268.758125 84.25878906 268.078125 84.25878906 C268.14 85.34160156 268.14 85.34160156 268.203125 86.44628906 C268.06891195 89.46608276 267.32641881 91.52814636 266.078125 94.25878906 C265.418125 94.25878906 264.758125 94.25878906 264.078125 94.25878906 C264.078125 96.23878906 264.078125 98.21878906 264.078125 100.25878906 C263.418125 100.25878906 262.758125 100.25878906 262.078125 100.25878906 C262.14 101.34160156 262.14 101.34160156 262.203125 102.44628906 C262.06891195 105.46608276 261.32641881 107.52814636 260.078125 110.25878906 C259.418125 110.25878906 258.758125 110.25878906 258.078125 110.25878906 C258.078125 112.23878906 258.078125 114.21878906 258.078125 116.25878906 C257.418125 116.25878906 256.758125 116.25878906 256.078125 116.25878906 C255.93375 116.98066406 255.789375 117.70253906 255.640625 118.44628906 C255.11979167 121.05045573 254.59895833 123.6546224 254.078125 126.25878906 C253.418125 126.25878906 252.758125 126.25878906 252.078125 126.25878906 C252.1709375 127.31066406 252.1709375 127.31066406 252.265625 128.38378906 C252.03443759 131.9286627 250.70927377 134.12698343 249.078125 137.25878906 C248.37905086 139.99451491 248.37905086 139.99451491 248.078125 142.25878906 C247.418125 142.25878906 246.758125 142.25878906 246.078125 142.25878906 C246.119375 142.98066406 246.160625 143.70253906 246.203125 144.44628906 C246.06891195 147.46608276 245.32641881 149.52814636 244.078125 152.25878906 C243.418125 152.25878906 242.758125 152.25878906 242.078125 152.25878906 C242.078125 154.23878906 242.078125 156.21878906 242.078125 158.25878906 C241.418125 158.25878906 240.758125 158.25878906 240.078125 158.25878906 C240.119375 158.98066406 240.160625 159.70253906 240.203125 160.44628906 C240.06891195 163.46608276 239.32641881 165.52814636 238.078125 168.25878906 C239.398125 168.25878906 240.718125 168.25878906 242.078125 168.25878906 C242.078125 167.59878906 242.078125 166.93878906 242.078125 166.25878906 C242.78839844 166.05382812 243.49867188 165.84886719 244.23046875 165.63769531 C245.14957031 165.36828125 246.06867188 165.09886719 247.015625 164.82128906 C247.93214844 164.55445313 248.84867187 164.28761719 249.79296875 164.01269531 C252.0183743 163.46852855 252.0183743 163.46852855 253.078125 162.25878906 C255.39629589 161.93781156 257.71591857 161.74657951 260.046875 161.54003906 C262.06993093 161.46813069 262.06993093 161.46813069 263.078125 160.25878906 C265.1386781 160.15885375 267.2026509 160.12798001 269.265625 160.12597656 C270.52117187 160.1246875 271.77671875 160.12339844 273.0703125 160.12207031 C273.72741211 160.12416504 274.38451172 160.12625977 275.06152344 160.12841797 C277.06973835 160.13376673 279.07772959 160.12847215 281.0859375 160.12207031 C282.96925781 160.12400391 282.96925781 160.12400391 284.890625 160.12597656 C286.05207031 160.12710449 287.21351563 160.12823242 288.41015625 160.12939453 C291.078125 160.25878906 291.078125 160.25878906 292.078125 161.25878906 C293.44961754 161.41771738 294.82593991 161.53575216 296.203125 161.63378906 C300.72409707 162.07941747 303.98474771 163.33249387 308.078125 165.25878906 C309.40088556 165.63187537 310.73044577 165.98925322 312.078125 166.25878906 C312.078125 166.91878906 312.078125 167.57878906 312.078125 168.25878906 C313.398125 168.25878906 314.718125 168.25878906 316.078125 168.25878906 C316.078125 168.91878906 316.078125 169.57878906 316.078125 170.25878906 C316.696875 170.40316406 317.315625 170.54753906 317.953125 170.69628906 C320.078125 171.25878906 320.078125 171.25878906 322.078125 172.25878906 C322.078125 172.91878906 322.078125 173.57878906 322.078125 174.25878906 C322.696875 174.40316406 323.315625 174.54753906 323.953125 174.69628906 C326.078125 175.25878906 326.078125 175.25878906 328.078125 176.25878906 C328.078125 176.91878906 328.078125 177.57878906 328.078125 178.25878906 C330.058125 178.91878906 332.038125 179.57878906 334.078125 180.25878906 C334.078125 180.91878906 334.078125 181.57878906 334.078125 182.25878906 C334.738125 182.25878906 335.398125 182.25878906 336.078125 182.25878906 C336.078125 182.91878906 336.078125 183.57878906 336.078125 184.25878906 C337.398125 184.25878906 338.718125 184.25878906 340.078125 184.25878906 C340.078125 184.91878906 340.078125 185.57878906 340.078125 186.25878906 C340.738125 186.25878906 341.398125 186.25878906 342.078125 186.25878906 C342.078125 186.91878906 342.078125 187.57878906 342.078125 188.25878906 C342.696875 188.40316406 343.315625 188.54753906 343.953125 188.69628906 C346.078125 189.25878906 346.078125 189.25878906 348.078125 190.25878906 C348.078125 190.91878906 348.078125 191.57878906 348.078125 192.25878906 C349.398125 192.25878906 350.718125 192.25878906 352.078125 192.25878906 C352.078125 192.91878906 352.078125 193.57878906 352.078125 194.25878906 C352.655625 194.40316406 353.233125 194.54753906 353.828125 194.69628906 C355.91145833 195.2171224 357.99479167 195.73795573 360.078125 196.25878906 C360.078125 196.91878906 360.078125 197.57878906 360.078125 198.25878906 C361.398125 198.25878906 362.718125 198.25878906 364.078125 198.25878906 C364.078125 198.91878906 364.078125 199.57878906 364.078125 200.25878906 C366.058125 200.25878906 368.038125 200.25878906 370.078125 200.25878906 C370.078125 200.91878906 370.078125 201.57878906 370.078125 202.25878906 C371.5321875 202.22785156 371.5321875 202.22785156 373.015625 202.19628906 C376.078125 202.25878906 376.078125 202.25878906 377.078125 203.25878906 C378.57309342 203.46578469 380.0747842 203.62558165 381.578125 203.75878906 C385.96701389 204.14767795 385.96701389 204.14767795 387.078125 205.25878906 C393.018125 205.58878906 398.958125 205.91878906 405.078125 206.25878906 C405.078125 231.33878906 405.078125 256.41878906 405.078125 282.25878906 C400.458125 282.25878906 395.838125 282.25878906 391.078125 282.25878906 C390.748125 281.92878906 390.418125 281.59878906 390.078125 281.25878906 C388.70663246 281.09986074 387.33031009 280.98182597 385.953125 280.88378906 C381.43215293 280.43816065 378.17150229 279.18508426 374.078125 277.25878906 C372.75536444 276.88570275 371.42580423 276.52832491 370.078125 276.25878906 C370.078125 275.59878906 370.078125 274.93878906 370.078125 274.25878906 C368.758125 274.25878906 367.438125 274.25878906 366.078125 274.25878906 C366.078125 273.59878906 366.078125 272.93878906 366.078125 272.25878906 C365.459375 272.11441406 364.840625 271.97003906 364.203125 271.82128906 C362.078125 271.25878906 362.078125 271.25878906 360.078125 270.25878906 C360.078125 269.59878906 360.078125 268.93878906 360.078125 268.25878906 C359.459375 268.11441406 358.840625 267.97003906 358.203125 267.82128906 C356.078125 267.25878906 356.078125 267.25878906 354.078125 266.25878906 C354.078125 265.59878906 354.078125 264.93878906 354.078125 264.25878906 C352.098125 263.59878906 350.118125 262.93878906 348.078125 262.25878906 C348.078125 261.59878906 348.078125 260.93878906 348.078125 260.25878906 C347.418125 260.25878906 346.758125 260.25878906 346.078125 260.25878906 C346.078125 259.59878906 346.078125 258.93878906 346.078125 258.25878906 C344.758125 258.25878906 343.438125 258.25878906 342.078125 258.25878906 C342.078125 257.59878906 342.078125 256.93878906 342.078125 256.25878906 C341.418125 256.25878906 340.758125 256.25878906 340.078125 256.25878906 C340.078125 255.59878906 340.078125 254.93878906 340.078125 254.25878906 C339.459375 254.11441406 338.840625 253.97003906 338.203125 253.82128906 C336.078125 253.25878906 336.078125 253.25878906 334.078125 252.25878906 C334.078125 251.59878906 334.078125 250.93878906 334.078125 250.25878906 C332.758125 250.25878906 331.438125 250.25878906 330.078125 250.25878906 C330.078125 249.59878906 330.078125 248.93878906 330.078125 248.25878906 C329.500625 248.11441406 328.923125 247.97003906 328.328125 247.82128906 C326.24479167 247.30045573 324.16145833 246.7796224 322.078125 246.25878906 C322.078125 245.59878906 322.078125 244.93878906 322.078125 244.25878906 C320.758125 244.25878906 319.438125 244.25878906 318.078125 244.25878906 C318.078125 243.59878906 318.078125 242.93878906 318.078125 242.25878906 C317.418125 242.32066406 316.758125 242.38253906 316.078125 242.44628906 C313.3081688 242.2731668 311.83196468 241.85287101 309.328125 240.82128906 C305.50528273 239.27030734 301.96224266 238.76502052 297.86328125 238.46972656 C296.078125 238.25878906 296.078125 238.25878906 295.078125 237.25878906 C292.42356307 237.15783342 289.79557324 237.11907908 287.140625 237.12597656 C286.345354 237.12501984 285.55008301 237.12406311 284.73071289 237.12307739 C283.0460604 237.12239563 281.36140529 237.12424964 279.67675781 237.12841797 C277.08913303 237.13376631 274.50168184 237.12847287 271.9140625 237.12207031 C270.28124961 237.12273109 268.64843684 237.12401226 267.015625 237.12597656 C266.23646729 237.12395233 265.45730957 237.1219281 264.65454102 237.11984253 C261.070183 236.80039326 261.070183 236.80039326 258.078125 238.25878906 C256.72759686 238.41837007 255.37203338 238.53607182 254.015625 238.63378906 C249.93595934 239.02943231 246.64321458 240.07347215 242.875 241.62597656 C240.55834512 242.44184198 238.51001291 242.48677855 236.078125 242.25878906 C236.078125 242.91878906 236.078125 243.57878906 236.078125 244.25878906 C234.758125 244.25878906 233.438125 244.25878906 232.078125 244.25878906 C232.078125 244.91878906 232.078125 245.57878906 232.078125 246.25878906 C229.17212239 247.51543884 227.28207916 248.25878906 224.078125 248.25878906 C224.078125 248.91878906 224.078125 249.57878906 224.078125 250.25878906 C222.758125 250.25878906 221.438125 250.25878906 220.078125 250.25878906 C220.078125 250.91878906 220.078125 251.57878906 220.078125 252.25878906 C217.078125 254.25878906 217.078125 254.25878906 214.078125 254.25878906 C214.078125 254.91878906 214.078125 255.57878906 214.078125 256.25878906 C213.418125 256.25878906 212.758125 256.25878906 212.078125 256.25878906 C212.078125 256.91878906 212.078125 257.57878906 212.078125 258.25878906 C210.758125 258.25878906 209.438125 258.25878906 208.078125 258.25878906 C208.078125 258.91878906 208.078125 259.57878906 208.078125 260.25878906 C207.418125 260.25878906 206.758125 260.25878906 206.078125 260.25878906 C206.078125 260.91878906 206.078125 261.57878906 206.078125 262.25878906 C204.098125 262.91878906 202.118125 263.57878906 200.078125 264.25878906 C200.078125 264.91878906 200.078125 265.57878906 200.078125 266.25878906 C197.078125 268.25878906 197.078125 268.25878906 194.078125 268.25878906 C194.078125 268.91878906 194.078125 269.57878906 194.078125 270.25878906 C191.078125 272.25878906 191.078125 272.25878906 188.078125 272.25878906 C188.078125 272.91878906 188.078125 273.57878906 188.078125 274.25878906 C186.758125 274.25878906 185.438125 274.25878906 184.078125 274.25878906 C184.078125 274.91878906 184.078125 275.57878906 184.078125 276.25878906 C183.36785156 276.46375 182.65757812 276.66871094 181.92578125 276.87988281 C181.00667969 277.14929688 180.08757812 277.41871094 179.140625 277.69628906 C178.22410156 277.963125 177.30757813 278.22996094 176.36328125 278.50488281 C174.1378757 279.04904958 174.1378757 279.04904958 173.078125 280.25878906 C170.75995411 280.57976657 168.44033143 280.77099862 166.109375 280.97753906 C164.08631907 281.04944744 164.08631907 281.04944744 163.078125 282.25878906 C161.0175719 282.35872438 158.9535991 282.38959812 156.890625 282.39160156 C155.63507813 282.39289063 154.37953125 282.39417969 153.0859375 282.39550781 C152.42883789 282.39341309 151.77173828 282.39131836 151.09472656 282.38916016 C149.08651165 282.3838114 147.07852041 282.38910597 145.0703125 282.39550781 C143.18699219 282.39357422 143.18699219 282.39357422 141.265625 282.39160156 C140.10417969 282.39047363 138.94273437 282.3893457 137.74609375 282.38818359 C135.078125 282.25878906 135.078125 282.25878906 134.078125 281.25878906 C132.70663246 281.09986074 131.33031009 280.98182597 129.953125 280.88378906 C125.43215293 280.43816065 122.17150229 279.18508426 118.078125 277.25878906 C116.75536444 276.88570275 115.42580423 276.52832491 114.078125 276.25878906 C114.078125 275.59878906 114.078125 274.93878906 114.078125 274.25878906 C112.758125 274.25878906 111.438125 274.25878906 110.078125 274.25878906 C110.078125 273.59878906 110.078125 272.93878906 110.078125 272.25878906 C109.459375 272.11441406 108.840625 271.97003906 108.203125 271.82128906 C106.078125 271.25878906 106.078125 271.25878906 104.078125 270.25878906 C104.078125 269.59878906 104.078125 268.93878906 104.078125 268.25878906 C103.459375 268.11441406 102.840625 267.97003906 102.203125 267.82128906 C100.078125 267.25878906 100.078125 267.25878906 98.078125 266.25878906 C98.078125 265.59878906 98.078125 264.93878906 98.078125 264.25878906 C96.098125 263.59878906 94.118125 262.93878906 92.078125 262.25878906 C92.078125 261.59878906 92.078125 260.93878906 92.078125 260.25878906 C91.418125 260.25878906 90.758125 260.25878906 90.078125 260.25878906 C90.078125 259.59878906 90.078125 258.93878906 90.078125 258.25878906 C88.758125 258.25878906 87.438125 258.25878906 86.078125 258.25878906 C86.078125 257.59878906 86.078125 256.93878906 86.078125 256.25878906 C85.418125 256.25878906 84.758125 256.25878906 84.078125 256.25878906 C84.078125 255.59878906 84.078125 254.93878906 84.078125 254.25878906 C83.459375 254.11441406 82.840625 253.97003906 82.203125 253.82128906 C80.078125 253.25878906 80.078125 253.25878906 78.078125 252.25878906 C78.078125 251.59878906 78.078125 250.93878906 78.078125 250.25878906 C76.758125 250.25878906 75.438125 250.25878906 74.078125 250.25878906 C74.078125 249.59878906 74.078125 248.93878906 74.078125 248.25878906 C73.211875 248.04222656 73.211875 248.04222656 72.328125 247.82128906 C70.24479167 247.30045573 68.16145833 246.7796224 66.078125 246.25878906 C66.078125 245.59878906 66.078125 244.93878906 66.078125 244.25878906 C64.758125 244.25878906 63.438125 244.25878906 62.078125 244.25878906 C62.078125 243.59878906 62.078125 242.93878906 62.078125 242.25878906 C61.418125 242.32066406 60.758125 242.38253906 60.078125 242.44628906 C57.3081688 242.2731668 55.83196468 241.85287101 53.328125 240.82128906 C49.50528273 239.27030734 45.96224266 238.76502052 41.86328125 238.46972656 C40.078125 238.25878906 40.078125 238.25878906 39.078125 237.25878906 C36.42356307 237.15783342 33.79557324 237.11907908 31.140625 237.12597656 C29.94771851 237.12454147 29.94771851 237.12454147 28.73071289 237.12307739 C27.0460604 237.12239563 25.36140529 237.12424964 23.67675781 237.12841797 C21.08913303 237.13376631 18.50168184 237.12847287 15.9140625 237.12207031 C14.28124961 237.12273109 12.64843684 237.12401226 11.015625 237.12597656 C10.23646729 237.12395233 9.45730957 237.1219281 8.65454102 237.11984253 C5.070183 236.80039326 5.070183 236.80039326 2.078125 238.25878906 C0.72759686 238.41837007 -0.62796662 238.53607182 -1.984375 238.63378906 C-6.06404066 239.02943231 -9.35678542 240.07347215 -13.125 241.62597656 C-15.44165488 242.44184198 -17.48998709 242.48677855 -19.921875 242.25878906 C-19.921875 242.91878906 -19.921875 243.57878906 -19.921875 244.25878906 C-21.241875 244.25878906 -22.561875 244.25878906 -23.921875 244.25878906 C-23.921875 244.91878906 -23.921875 245.57878906 -23.921875 246.25878906 C-26.82787761 247.51543884 -28.71792084 248.25878906 -31.921875 248.25878906 C-31.921875 248.91878906 -31.921875 249.57878906 -31.921875 250.25878906 C-33.241875 250.25878906 -34.561875 250.25878906 -35.921875 250.25878906 C-35.921875 250.91878906 -35.921875 251.57878906 -35.921875 252.25878906 C-38.921875 254.25878906 -38.921875 254.25878906 -41.921875 254.25878906 C-41.921875 254.91878906 -41.921875 255.57878906 -41.921875 256.25878906 C-42.581875 256.25878906 -43.241875 256.25878906 -43.921875 256.25878906 C-43.921875 256.91878906 -43.921875 257.57878906 -43.921875 258.25878906 C-45.241875 258.25878906 -46.561875 258.25878906 -47.921875 258.25878906 C-47.921875 258.91878906 -47.921875 259.57878906 -47.921875 260.25878906 C-48.581875 260.25878906 -49.241875 260.25878906 -49.921875 260.25878906 C-49.921875 260.91878906 -49.921875 261.57878906 -49.921875 262.25878906 C-51.901875 262.91878906 -53.881875 263.57878906 -55.921875 264.25878906 C-55.921875 264.91878906 -55.921875 265.57878906 -55.921875 266.25878906 C-58.921875 268.25878906 -58.921875 268.25878906 -61.921875 268.25878906 C-61.921875 268.91878906 -61.921875 269.57878906 -61.921875 270.25878906 C-64.921875 272.25878906 -64.921875 272.25878906 -67.921875 272.25878906 C-67.921875 272.91878906 -67.921875 273.57878906 -67.921875 274.25878906 C-69.241875 274.25878906 -70.561875 274.25878906 -71.921875 274.25878906 C-71.921875 274.91878906 -71.921875 275.57878906 -71.921875 276.25878906 C-72.63214844 276.46375 -73.34242187 276.66871094 -74.07421875 276.87988281 C-74.99332031 277.14929688 -75.91242188 277.41871094 -76.859375 277.69628906 C-78.23416016 278.09654297 -78.23416016 278.09654297 -79.63671875 278.50488281 C-81.8621243 279.04904958 -81.8621243 279.04904958 -82.921875 280.25878906 C-85.24004589 280.57976657 -87.55966857 280.77099862 -89.890625 280.97753906 C-91.91368093 281.04944744 -91.91368093 281.04944744 -92.921875 282.25878906 C-97.541875 282.25878906 -102.161875 282.25878906 -106.921875 282.25878906 C-106.921875 257.17878906 -106.921875 232.09878906 -106.921875 206.25878906 C-100.981875 205.92878906 -95.041875 205.59878906 -88.921875 205.25878906 C-88.591875 204.92878906 -88.261875 204.59878906 -87.921875 204.25878906 C-85.60370411 203.93781156 -83.28408143 203.74657951 -80.953125 203.54003906 C-78.93006907 203.46813069 -78.93006907 203.46813069 -77.921875 202.25878906 C-75.92229136 202.21798123 -73.92142246 202.2162455 -71.921875 202.25878906 C-71.921875 201.59878906 -71.921875 200.93878906 -71.921875 200.25878906 C-69.941875 200.25878906 -67.961875 200.25878906 -65.921875 200.25878906 C-65.921875 199.59878906 -65.921875 198.93878906 -65.921875 198.25878906 C-64.601875 198.25878906 -63.281875 198.25878906 -61.921875 198.25878906 C-61.921875 197.59878906 -61.921875 196.93878906 -61.921875 196.25878906 C-59.01587239 195.00213928 -57.12582916 194.25878906 -53.921875 194.25878906 C-53.921875 193.59878906 -53.921875 192.93878906 -53.921875 192.25878906 C-52.601875 192.25878906 -51.281875 192.25878906 -49.921875 192.25878906 C-49.921875 191.59878906 -49.921875 190.93878906 -49.921875 190.25878906 C-46.921875 188.25878906 -46.921875 188.25878906 -43.921875 188.25878906 C-43.921875 187.59878906 -43.921875 186.93878906 -43.921875 186.25878906 C-43.261875 186.25878906 -42.601875 186.25878906 -41.921875 186.25878906 C-41.921875 185.59878906 -41.921875 184.93878906 -41.921875 184.25878906 C-40.601875 184.25878906 -39.281875 184.25878906 -37.921875 184.25878906 C-37.921875 183.59878906 -37.921875 182.93878906 -37.921875 182.25878906 C-37.261875 182.25878906 -36.601875 182.25878906 -35.921875 182.25878906 C-35.921875 181.59878906 -35.921875 180.93878906 -35.921875 180.25878906 C-33.941875 179.59878906 -31.961875 178.93878906 -29.921875 178.25878906 C-29.921875 177.59878906 -29.921875 176.93878906 -29.921875 176.25878906 C-26.921875 174.25878906 -26.921875 174.25878906 -23.921875 174.25878906 C-23.921875 173.59878906 -23.921875 172.93878906 -23.921875 172.25878906 C-20.921875 170.25878906 -20.921875 170.25878906 -17.921875 170.25878906 C-17.921875 169.59878906 -17.921875 168.93878906 -17.921875 168.25878906 C-16.601875 168.25878906 -15.281875 168.25878906 -13.921875 168.25878906 C-13.921875 167.59878906 -13.921875 166.93878906 -13.921875 166.25878906 C-12.85646484 165.95134766 -12.85646484 165.95134766 -11.76953125 165.63769531 C-10.85042969 165.36828125 -9.93132812 165.09886719 -8.984375 164.82128906 C-8.06785156 164.55445313 -7.15132813 164.28761719 -6.20703125 164.01269531 C-3.9816257 163.46852855 -3.9816257 163.46852855 -2.921875 162.25878906 C-0.60370411 161.93781156 1.71591857 161.74657951 4.046875 161.54003906 C6.06993093 161.46813069 6.06993093 161.46813069 7.078125 160.25878906 C9.1386781 160.15885375 11.2026509 160.12798001 13.265625 160.12597656 C14.52117187 160.1246875 15.77671875 160.12339844 17.0703125 160.12207031 C17.72741211 160.12416504 18.38451172 160.12625977 19.06152344 160.12841797 C21.06973835 160.13376673 23.07772959 160.12847215 25.0859375 160.12207031 C26.96925781 160.12400391 26.96925781 160.12400391 28.890625 160.12597656 C30.05207031 160.12710449 31.21351563 160.12823242 32.41015625 160.12939453 C35.078125 160.25878906 35.078125 160.25878906 36.078125 161.25878906 C37.44961754 161.41771738 38.82593991 161.53575216 40.203125 161.63378906 C44.72409707 162.07941747 47.98474771 163.33249387 52.078125 165.25878906 C53.40088556 165.63187537 54.73044577 165.98925322 56.078125 166.25878906 C56.078125 166.91878906 56.078125 167.57878906 56.078125 168.25878906 C57.398125 168.25878906 58.718125 168.25878906 60.078125 168.25878906 C60.078125 168.91878906 60.078125 169.57878906 60.078125 170.25878906 C60.696875 170.40316406 61.315625 170.54753906 61.953125 170.69628906 C64.078125 171.25878906 64.078125 171.25878906 66.078125 172.25878906 C65.748125 171.68128906 65.418125 171.10378906 65.078125 170.50878906 C64.078125 168.25878906 64.078125 168.25878906 64.078125 164.25878906 C63.418125 164.25878906 62.758125 164.25878906 62.078125 164.25878906 C60.76185808 160.63905504 60.078125 158.16311775 60.078125 154.25878906 C59.418125 154.25878906 58.758125 154.25878906 58.078125 154.25878906 C56.76185808 150.63905504 56.078125 148.16311775 56.078125 144.25878906 C55.418125 144.25878906 54.758125 144.25878906 54.078125 144.25878906 C52.76185808 140.63905504 52.078125 138.16311775 52.078125 134.25878906 C51.418125 134.25878906 50.758125 134.25878906 50.078125 134.25878906 C48.47457399 130.75102122 47.85775636 128.11524027 48.078125 124.25878906 C47.418125 124.25878906 46.758125 124.25878906 46.078125 124.25878906 C44.47457399 120.75102122 43.85775636 118.11524027 44.078125 114.25878906 C43.418125 114.25878906 42.758125 114.25878906 42.078125 114.25878906 C40.47457399 110.75102122 39.85775636 108.11524027 40.078125 104.25878906 C39.418125 104.25878906 38.758125 104.25878906 38.078125 104.25878906 C36.47457399 100.75102122 35.85775636 98.11524027 36.078125 94.25878906 C35.418125 94.25878906 34.758125 94.25878906 34.078125 94.25878906 C32.47457399 90.75102122 31.85775636 88.11524027 32.078125 84.25878906 C31.418125 84.25878906 30.758125 84.25878906 30.078125 84.25878906 C28.47457399 80.75102122 27.85775636 78.11524027 28.078125 74.25878906 C27.418125 74.25878906 26.758125 74.25878906 26.078125 74.25878906 C24.47457399 70.75102122 23.85775636 68.11524027 24.078125 64.25878906 C23.418125 64.25878906 22.758125 64.25878906 22.078125 64.25878906 C20.47457399 60.75102122 19.85775636 58.11524027 20.078125 54.25878906 C19.418125 54.25878906 18.758125 54.25878906 18.078125 54.25878906 C18.078125 52.93878906 18.078125 51.61878906 18.078125 50.25878906 C17.418125 50.25878906 16.758125 50.25878906 16.078125 50.25878906 C16.078125 48.27878906 16.078125 46.29878906 16.078125 44.25878906 C15.418125 44.25878906 14.758125 44.25878906 14.078125 44.25878906 C14.078125 42.93878906 14.078125 41.61878906 14.078125 40.25878906 C13.418125 40.25878906 12.758125 40.25878906 12.078125 40.25878906 C11.40284277 38.67911099 10.73822806 37.09487003 10.078125 35.50878906 C9.706875 34.62707031 9.335625 33.74535156 8.953125 32.83691406 C8.078125 30.25878906 8.078125 30.25878906 8.078125 26.25878906 C7.418125 26.25878906 6.758125 26.25878906 6.078125 26.25878906 C5.088125 23.28878906 5.088125 23.28878906 4.078125 20.25878906 C3.418125 20.25878906 2.758125 20.25878906 2.078125 20.25878906 C2.078125 19.59878906 2.078125 18.93878906 2.078125 18.25878906 C1.418125 18.25878906 0.758125 18.25878906 0.078125 18.25878906 C0.078125 17.59878906 0.078125 16.93878906 0.078125 16.25878906 C-3.90164576 15.41459527 -7.89194718 14.81191641 -11.921875 14.25878906 C-12.00269594 12.30112625 -12.06098278 10.34252179 -12.109375 8.38378906 C-12.16158203 6.74796875 -12.16158203 6.74796875 -12.21484375 5.07910156 C-12.11816406 4.14839844 -12.02148438 3.21769531 -11.921875 2.25878906 C-7.97164703 -0.37469625 -4.58391439 -0.02149211 0 0 Z M152.078125 98.25878906 C152.078125 99.57878906 152.078125 100.89878906 152.078125 102.25878906 C151.418125 102.25878906 150.758125 102.25878906 150.078125 102.25878906 C148.76185808 105.87852308 148.078125 108.35446037 148.078125 112.25878906 C147.418125 112.25878906 146.758125 112.25878906 146.078125 112.25878906 C146.078125 113.57878906 146.078125 114.89878906 146.078125 116.25878906 C145.418125 116.25878906 144.758125 116.25878906 144.078125 116.25878906 C142.76185808 119.87852308 142.078125 122.35446037 142.078125 126.25878906 C141.418125 126.25878906 140.758125 126.25878906 140.078125 126.25878906 C138.47457399 129.76655691 137.85775636 132.40233785 138.078125 136.25878906 C137.418125 136.25878906 136.758125 136.25878906 136.078125 136.25878906 C136.078125 137.57878906 136.078125 138.89878906 136.078125 140.25878906 C135.418125 140.25878906 134.758125 140.25878906 134.078125 140.25878906 C132.76185808 143.87852308 132.078125 146.35446037 132.078125 150.25878906 C131.418125 150.25878906 130.758125 150.25878906 130.078125 150.25878906 C130.078125 151.57878906 130.078125 152.89878906 130.078125 154.25878906 C129.418125 154.25878906 128.758125 154.25878906 128.078125 154.25878906 C126.76185808 157.87852308 126.078125 160.35446037 126.078125 164.25878906 C125.418125 164.25878906 124.758125 164.25878906 124.078125 164.25878906 C124.078125 165.57878906 124.078125 166.89878906 124.078125 168.25878906 C123.418125 168.25878906 122.758125 168.25878906 122.078125 168.25878906 C120.76185808 171.87852308 120.078125 174.35446037 120.078125 178.25878906 C119.418125 178.25878906 118.758125 178.25878906 118.078125 178.25878906 C116.47457399 181.76655691 115.85775636 184.40233785 116.078125 188.25878906 C115.418125 188.25878906 114.758125 188.25878906 114.078125 188.25878906 C114.078125 189.57878906 114.078125 190.89878906 114.078125 192.25878906 C113.418125 192.25878906 112.758125 192.25878906 112.078125 192.25878906 C111.418125 194.89878906 110.758125 197.53878906 110.078125 200.25878906 C111.398125 200.25878906 112.718125 200.25878906 114.078125 200.25878906 C114.078125 200.91878906 114.078125 201.57878906 114.078125 202.25878906 C118.83475659 203.77686297 123.28057768 204.59933174 128.2578125 205.01269531 C130.078125 205.25878906 130.078125 205.25878906 131.078125 206.25878906 C133.73268693 206.3597447 136.36067676 206.39849905 139.015625 206.39160156 C140.20853149 206.39303665 140.20853149 206.39303665 141.42553711 206.39450073 C143.1101896 206.39518249 144.79484471 206.39332849 146.47949219 206.38916016 C149.06711697 206.38381181 151.65456816 206.38910525 154.2421875 206.39550781 C155.87500039 206.39484703 157.50781316 206.39356587 159.140625 206.39160156 C159.91978271 206.39362579 160.69894043 206.39565002 161.50170898 206.3977356 C165.086067 206.71718486 165.086067 206.71718486 168.078125 205.25878906 C169.44837154 205.07354114 170.8251571 204.93573046 172.203125 204.82128906 C176.37786517 204.40715484 180.08697998 203.53255875 184.078125 202.25878906 C184.078125 201.59878906 184.078125 200.93878906 184.078125 200.25878906 C186.058125 200.25878906 188.038125 200.25878906 190.078125 200.25878906 C190.078125 199.59878906 190.078125 198.93878906 190.078125 198.25878906 C190.738125 198.25878906 191.398125 198.25878906 192.078125 198.25878906 C192.078125 196.27878906 192.078125 194.29878906 192.078125 192.25878906 C191.418125 192.25878906 190.758125 192.25878906 190.078125 192.25878906 C189.41145833 188.92545573 188.74479167 185.5921224 188.078125 182.25878906 C187.418125 182.25878906 186.758125 182.25878906 186.078125 182.25878906 C186.119375 181.53691406 186.160625 180.81503906 186.203125 180.07128906 C186.06891195 177.05149537 185.32641881 174.98943177 184.078125 172.25878906 C183.418125 172.25878906 182.758125 172.25878906 182.078125 172.25878906 C182.078125 170.27878906 182.078125 168.29878906 182.078125 166.25878906 C181.418125 166.25878906 180.758125 166.25878906 180.078125 166.25878906 C179.41145833 162.92545573 178.74479167 159.5921224 178.078125 156.25878906 C177.418125 156.25878906 176.758125 156.25878906 176.078125 156.25878906 C176.1709375 155.20691406 176.1709375 155.20691406 176.265625 154.13378906 C176.03443759 150.58891543 174.70927377 148.3905947 173.078125 145.25878906 C172.390625 142.38378906 172.390625 142.38378906 172.078125 140.25878906 C171.418125 140.25878906 170.758125 140.25878906 170.078125 140.25878906 C169.078125 135.25878906 169.078125 135.25878906 168.078125 130.25878906 C167.418125 130.25878906 166.758125 130.25878906 166.078125 130.25878906 C166.078125 128.27878906 166.078125 126.29878906 166.078125 124.25878906 C165.418125 124.25878906 164.758125 124.25878906 164.078125 124.25878906 C163.078125 119.25878906 163.078125 119.25878906 162.078125 114.25878906 C161.418125 114.25878906 160.758125 114.25878906 160.078125 114.25878906 C159.078125 109.25878906 159.078125 109.25878906 158.078125 104.25878906 C157.418125 104.25878906 156.758125 104.25878906 156.078125 104.25878906 C156.078125 102.27878906 156.078125 100.29878906 156.078125 98.25878906 C154.758125 98.25878906 153.438125 98.25878906 152.078125 98.25878906 Z M236.078125 168.25878906 C236.078125 168.91878906 236.078125 169.57878906 236.078125 170.25878906 C236.738125 170.25878906 237.398125 170.25878906 238.078125 170.25878906 C238.078125 169.59878906 238.078125 168.93878906 238.078125 168.25878906 C237.418125 168.25878906 236.758125 168.25878906 236.078125 168.25878906 Z " fill="#2D6BA3" transform="translate(106.921875,96.7412109375)"/>
<path d="M0 0 C1.60875 -0.00386719 1.60875 -0.00386719 3.25 -0.0078125 C6 0.125 6 0.125 8 1.125 C10.204364 1.35450319 12.41392173 1.53575933 14.625 1.6875 C15.81351563 1.77128906 17.00203125 1.85507812 18.2265625 1.94140625 C19.59941406 2.03228516 19.59941406 2.03228516 21 2.125 C21 2.785 21 3.445 21 4.125 C22.051875 4.08375 23.10375 4.0425 24.1875 4 C27.74010173 4.11647875 29.84866641 4.59708068 33 6.125 C33 6.785 33 7.445 33 8.125 C34.32 8.125 35.64 8.125 37 8.125 C37 8.785 37 9.445 37 10.125 C38.32 10.125 39.64 10.125 41 10.125 C41 10.785 41 11.445 41 12.125 C41.61875 12.269375 42.2375 12.41375 42.875 12.5625 C45 13.125 45 13.125 47 14.125 C47 14.785 47 15.445 47 16.125 C48.98 16.785 50.96 17.445 53 18.125 C53 18.785 53 19.445 53 20.125 C53.66 20.125 54.32 20.125 55 20.125 C55 20.785 55 21.445 55 22.125 C56.32 22.125 57.64 22.125 59 22.125 C59 22.785 59 23.445 59 24.125 C59.66 24.125 60.32 24.125 61 24.125 C61 24.785 61 25.445 61 26.125 C61.61875 26.269375 62.2375 26.41375 62.875 26.5625 C65 27.125 65 27.125 67 28.125 C67 28.785 67 29.445 67 30.125 C67.61875 30.269375 68.2375 30.41375 68.875 30.5625 C71 31.125 71 31.125 73 32.125 C73 32.785 73 33.445 73 34.125 C74.32 34.125 75.64 34.125 77 34.125 C77 34.785 77 35.445 77 36.125 C78.32 36.125 79.64 36.125 81 36.125 C81 36.785 81 37.445 81 38.125 C82.32 38.125 83.64 38.125 85 38.125 C85 38.785 85 39.445 85 40.125 C86.98 40.125 88.96 40.125 91 40.125 C91 40.785 91 41.445 91 42.125 C92.98 42.125 94.96 42.125 97 42.125 C97 42.785 97 43.445 97 44.125 C98.7015625 44.0940625 98.7015625 44.0940625 100.4375 44.0625 C104 44.125 104 44.125 105 45.125 C107.81630224 45.33644292 110.61717799 45.50128157 113.4375 45.625 C121.73119964 45.99059982 121.73119964 45.99059982 124 47.125 C125.91500303 47.28398854 125.91500303 47.28398854 128 47.25 C128.70125 47.25257813 129.4025 47.25515625 130.125 47.2578125 C132.09153775 47.23877236 132.09153775 47.23877236 134 46.125 C137.65581171 45.85992604 141.30546633 45.68014201 144.96679688 45.51953125 C148.79767901 45.69327928 148.79767901 45.69327928 152 44.125 C154.33297433 44.08407063 156.66705225 44.08258277 159 44.125 C159 43.465 159 42.805 159 42.125 C163.1196377 40.83256464 166.66831683 39.86247375 171 40.125 C171 39.465 171 38.805 171 38.125 C172.32 38.125 173.64 38.125 175 38.125 C175 37.465 175 36.805 175 36.125 C176.32 36.125 177.64 36.125 179 36.125 C179 35.465 179 34.805 179 34.125 C180.32 34.125 181.64 34.125 183 34.125 C183 33.465 183 32.805 183 32.125 C186 30.125 186 30.125 189 30.125 C189 29.465 189 28.805 189 28.125 C192 26.125 192 26.125 195 26.125 C195 25.465 195 24.805 195 24.125 C195.66 24.125 196.32 24.125 197 24.125 C197 23.465 197 22.805 197 22.125 C198.32 22.125 199.64 22.125 201 22.125 C201 21.465 201 20.805 201 20.125 C201.66 20.125 202.32 20.125 203 20.125 C203 19.465 203 18.805 203 18.125 C204.98 17.465 206.96 16.805 209 16.125 C209 15.465 209 14.805 209 14.125 C212 12.125 212 12.125 215 12.125 C215 11.465 215 10.805 215 10.125 C216.32 10.125 217.64 10.125 219 10.125 C219 9.465 219 8.805 219 8.125 C220.32 8.125 221.64 8.125 223 8.125 C223 7.465 223 6.805 223 6.125 C227.1205746 4.12714565 230.45194365 3.94664485 235 4.125 C235 3.465 235 2.805 235 2.125 C235.91523438 2.06441406 236.83046875 2.00382812 237.7734375 1.94140625 C239.55621094 1.81572266 239.55621094 1.81572266 241.375 1.6875 C243.15003906 1.56568359 243.15003906 1.56568359 244.9609375 1.44140625 C247.91518901 1.31415064 247.91518901 1.31415064 250 0.125 C251.9981051 0.02850061 253.9995718 -0.00480872 256 0 C257.60875 -0.00386719 257.60875 -0.00386719 259.25 -0.0078125 C262 0.125 262 0.125 264 1.125 C266.204364 1.35450319 268.41392173 1.53575933 270.625 1.6875 C272.40777344 1.81318359 272.40777344 1.81318359 274.2265625 1.94140625 C275.59941406 2.03228516 275.59941406 2.03228516 277 2.125 C277 2.785 277 3.445 277 4.125 C278.051875 4.08375 279.10375 4.0425 280.1875 4 C283.74010173 4.11647875 285.84866641 4.59708068 289 6.125 C289 6.785 289 7.445 289 8.125 C290.32 8.125 291.64 8.125 293 8.125 C293 8.785 293 9.445 293 10.125 C294.32 10.125 295.64 10.125 297 10.125 C297 10.785 297 11.445 297 12.125 C297.61875 12.269375 298.2375 12.41375 298.875 12.5625 C301 13.125 301 13.125 303 14.125 C303 14.785 303 15.445 303 16.125 C304.98 16.785 306.96 17.445 309 18.125 C309 18.785 309 19.445 309 20.125 C309.66 20.125 310.32 20.125 311 20.125 C311 20.785 311 21.445 311 22.125 C312.32 22.125 313.64 22.125 315 22.125 C315 22.785 315 23.445 315 24.125 C315.66 24.125 316.32 24.125 317 24.125 C317 24.785 317 25.445 317 26.125 C317.61875 26.269375 318.2375 26.41375 318.875 26.5625 C321 27.125 321 27.125 323 28.125 C323 28.785 323 29.445 323 30.125 C323.61875 30.269375 324.2375 30.41375 324.875 30.5625 C327 31.125 327 31.125 329 32.125 C329 32.785 329 33.445 329 34.125 C330.32 34.125 331.64 34.125 333 34.125 C333 34.785 333 35.445 333 36.125 C334.32 36.125 335.64 36.125 337 36.125 C337 36.785 337 37.445 337 38.125 C338.32 38.125 339.64 38.125 341 38.125 C341 38.785 341 39.445 341 40.125 C342.98 40.125 344.96 40.125 347 40.125 C347 40.785 347 41.445 347 42.125 C348.98 42.125 350.96 42.125 353 42.125 C353 42.785 353 43.445 353 44.125 C354.7015625 44.0940625 354.7015625 44.0940625 356.4375 44.0625 C360 44.125 360 44.125 361 45.125 C364.49329645 45.36343735 367.97965551 45.52028208 371.47851562 45.64257812 C372.22166016 45.67673828 372.96480469 45.71089844 373.73046875 45.74609375 C374.40489014 45.7711499 375.07931152 45.79620605 375.77416992 45.82202148 C378 46.125 378 46.125 384 48.125 C384 70.565 384 93.005 384 116.125 C376.74 116.125 369.48 116.125 362 116.125 C361.67 115.795 361.34 115.465 361 115.125 C359.62975346 114.93975208 358.2529679 114.8019414 356.875 114.6875 C352.70025983 114.27336578 348.99114502 113.39876969 345 112.125 C345 111.465 345 110.805 345 110.125 C344.278125 110.16625 343.55625 110.2075 342.8125 110.25 C339.79270631 110.11578695 337.73064271 109.37329381 335 108.125 C335 107.465 335 106.805 335 106.125 C333.68 106.125 332.36 106.125 331 106.125 C331 105.465 331 104.805 331 104.125 C329.68 104.125 328.36 104.125 327 104.125 C327 103.465 327 102.805 327 102.125 C325.02 101.465 323.04 100.805 321 100.125 C321 99.465 321 98.805 321 98.125 C320.38125 97.980625 319.7625 97.83625 319.125 97.6875 C317 97.125 317 97.125 315 96.125 C315 95.465 315 94.805 315 94.125 C313.02 93.465 311.04 92.805 309 92.125 C309 91.465 309 90.805 309 90.125 C308.34 90.125 307.68 90.125 307 90.125 C307 89.465 307 88.805 307 88.125 C306.38125 87.980625 305.7625 87.83625 305.125 87.6875 C303 87.125 303 87.125 301 86.125 C301 85.465 301 84.805 301 84.125 C300.38125 83.980625 299.7625 83.83625 299.125 83.6875 C297 83.125 297 83.125 295 82.125 C295 81.465 295 80.805 295 80.125 C293.68 80.125 292.36 80.125 291 80.125 C291 79.465 291 78.805 291 78.125 C289.68 78.125 288.36 78.125 287 78.125 C287 77.465 287 76.805 287 76.125 C285.68 76.125 284.36 76.125 283 76.125 C283 75.465 283 74.805 283 74.125 C281.02 74.125 279.04 74.125 277 74.125 C277 73.465 277 72.805 277 72.125 C276.21753906 72.13660156 275.43507813 72.14820313 274.62890625 72.16015625 C273.61699219 72.16917969 272.60507812 72.17820312 271.5625 72.1875 C270.55316406 72.19910156 269.54382813 72.21070313 268.50390625 72.22265625 C266 72.125 266 72.125 265 71.125 C263.66956375 71.0266279 262.33406656 70.99421408 261 70.9921875 C260.195625 70.99089844 259.39125 70.98960937 258.5625 70.98828125 C257.716875 70.99214844 256.87125 70.99601562 256 71 C254.7315625 70.99419922 254.7315625 70.99419922 253.4375 70.98828125 C252.633125 70.98957031 251.82875 70.99085938 251 70.9921875 C249.88625 70.99387939 249.88625 70.99387939 248.75 70.99560547 C246.97174189 70.93557784 246.97174189 70.93557784 246 72.125 C244.14712498 72.19726502 242.29166122 72.2088122 240.4375 72.1875 C238.91962891 72.17396484 238.91962891 72.17396484 237.37109375 72.16015625 C236.58863281 72.14855469 235.80617188 72.13695312 235 72.125 C235 72.785 235 73.445 235 74.125 C233.02 74.125 231.04 74.125 229 74.125 C229 74.785 229 75.445 229 76.125 C227.68 76.125 226.36 76.125 225 76.125 C225 76.785 225 77.445 225 78.125 C223.68 78.125 222.36 78.125 221 78.125 C221 78.785 221 79.445 221 80.125 C219.68 80.125 218.36 80.125 217 80.125 C217 80.785 217 81.445 217 82.125 C214 84.125 214 84.125 211 84.125 C211 84.785 211 85.445 211 86.125 C208 88.125 208 88.125 205 88.125 C205 88.785 205 89.445 205 90.125 C204.34 90.125 203.68 90.125 203 90.125 C203 90.785 203 91.445 203 92.125 C201.02 92.785 199.04 93.445 197 94.125 C197 94.785 197 95.445 197 96.125 C194 98.125 194 98.125 191 98.125 C191 98.785 191 99.445 191 100.125 C189.02 100.785 187.04 101.445 185 102.125 C185 102.785 185 103.445 185 104.125 C183.68 104.125 182.36 104.125 181 104.125 C181 104.785 181 105.445 181 106.125 C179.68 106.125 178.36 106.125 177 106.125 C177 106.785 177 107.445 177 108.125 C173.49223216 109.72855101 170.85645121 110.34536864 167 110.125 C167 110.785 167 111.445 167 112.125 C162.24336841 113.64307391 157.79754732 114.46554268 152.8203125 114.87890625 C150.98290012 114.94010058 150.98290012 114.94010058 150 116.125 C148.62390118 116.22295311 147.24286118 116.25298088 145.86328125 116.25439453 C144.54686646 116.25912277 144.54686646 116.25912277 143.20385742 116.26394653 C142.24970947 116.2619223 141.29556152 116.25989807 140.3125 116.2578125 C138.85324097 116.25924759 138.85324097 116.25924759 137.36450195 116.26071167 C135.303222 116.26139358 133.24193992 116.25953853 131.18066406 116.25537109 C128.01362312 116.250023 124.846724 116.25531572 121.6796875 116.26171875 C119.68229135 116.26105797 117.68489529 116.25977681 115.6875 116.2578125 C114.73335205 116.25983673 113.7792041 116.26186096 112.79614258 116.26394653 C111.47972778 116.25921829 111.47972778 116.25921829 110.13671875 116.25439453 C109.36030029 116.25359894 108.58388184 116.25280334 107.78393555 116.25198364 C106 116.125 106 116.125 105 115.125 C103.62975346 114.93975208 102.2529679 114.8019414 100.875 114.6875 C96.70025983 114.27336578 92.99114502 113.39876969 89 112.125 C89 111.465 89 110.805 89 110.125 C88.278125 110.16625 87.55625 110.2075 86.8125 110.25 C83.79270631 110.11578695 81.73064271 109.37329381 79 108.125 C79 107.465 79 106.805 79 106.125 C77.68 106.125 76.36 106.125 75 106.125 C75 105.465 75 104.805 75 104.125 C73.68 104.125 72.36 104.125 71 104.125 C71 103.465 71 102.805 71 102.125 C68.03 101.135 68.03 101.135 65 100.125 C65 99.465 65 98.805 65 98.125 C64.38125 97.980625 63.7625 97.83625 63.125 97.6875 C61 97.125 61 97.125 59 96.125 C59 95.465 59 94.805 59 94.125 C56.03 93.135 56.03 93.135 53 92.125 C53 91.465 53 90.805 53 90.125 C52.34 90.125 51.68 90.125 51 90.125 C51 89.465 51 88.805 51 88.125 C50.38125 87.980625 49.7625 87.83625 49.125 87.6875 C47 87.125 47 87.125 45 86.125 C45 85.465 45 84.805 45 84.125 C44.38125 83.980625 43.7625 83.83625 43.125 83.6875 C41 83.125 41 83.125 39 82.125 C39 81.465 39 80.805 39 80.125 C37.68 80.125 36.36 80.125 35 80.125 C35 79.465 35 78.805 35 78.125 C33.68 78.125 32.36 78.125 31 78.125 C31 77.465 31 76.805 31 76.125 C29.68 76.125 28.36 76.125 27 76.125 C27 75.465 27 74.805 27 74.125 C25.02 74.125 23.04 74.125 21 74.125 C21 73.465 21 72.805 21 72.125 C20.21753906 72.13660156 19.43507812 72.14820313 18.62890625 72.16015625 C17.61699219 72.16917969 16.60507813 72.17820312 15.5625 72.1875 C14.55316406 72.19910156 13.54382813 72.21070313 12.50390625 72.22265625 C10 72.125 10 72.125 9 71.125 C7.66956375 71.0266279 6.33406656 70.99421408 5 70.9921875 C4.195625 70.99089844 3.39125 70.98960937 2.5625 70.98828125 C1.716875 70.99214844 0.87125 70.99601562 0 71 C-0.845625 70.99613281 -1.69125 70.99226563 -2.5625 70.98828125 C-3.366875 70.98957031 -4.17125 70.99085938 -5 70.9921875 C-6.11375 70.99387939 -6.11375 70.99387939 -7.25 70.99560547 C-9.02825811 70.93557784 -9.02825811 70.93557784 -10 72.125 C-11.85287502 72.19726502 -13.70833878 72.2088122 -15.5625 72.1875 C-16.57441406 72.17847656 -17.58632812 72.16945313 -18.62890625 72.16015625 C-19.41136719 72.14855469 -20.19382812 72.13695312 -21 72.125 C-21 72.785 -21 73.445 -21 74.125 C-22.98 74.125 -24.96 74.125 -27 74.125 C-27 74.785 -27 75.445 -27 76.125 C-28.32 76.125 -29.64 76.125 -31 76.125 C-31 76.785 -31 77.445 -31 78.125 C-32.32 78.125 -33.64 78.125 -35 78.125 C-35 78.785 -35 79.445 -35 80.125 C-36.32 80.125 -37.64 80.125 -39 80.125 C-39 80.785 -39 81.445 -39 82.125 C-42 84.125 -42 84.125 -45 84.125 C-45 84.785 -45 85.445 -45 86.125 C-48 88.125 -48 88.125 -51 88.125 C-51 88.785 -51 89.445 -51 90.125 C-51.66 90.125 -52.32 90.125 -53 90.125 C-53 90.785 -53 91.445 -53 92.125 C-54.98 92.785 -56.96 93.445 -59 94.125 C-59 94.785 -59 95.445 -59 96.125 C-62 98.125 -62 98.125 -65 98.125 C-65 98.785 -65 99.445 -65 100.125 C-67.97 101.115 -67.97 101.115 -71 102.125 C-71 102.785 -71 103.445 -71 104.125 C-72.32 104.125 -73.64 104.125 -75 104.125 C-75 104.785 -75 105.445 -75 106.125 C-76.32 106.125 -77.64 106.125 -79 106.125 C-79 106.785 -79 107.445 -79 108.125 C-82.50776784 109.72855101 -85.14354879 110.34536864 -89 110.125 C-89 110.785 -89 111.445 -89 112.125 C-93.75663159 113.64307391 -98.20245268 114.46554268 -103.1796875 114.87890625 C-105.01709988 114.94010058 -105.01709988 114.94010058 -106 116.125 C-113.26 116.125 -120.52 116.125 -128 116.125 C-128 93.685 -128 71.245 -128 48.125 C-121.25625168 45.87708389 -121.25625168 45.87708389 -117.73046875 45.74609375 C-116.98732422 45.71193359 -116.24417969 45.67777344 -115.47851562 45.64257812 C-114.34446289 45.60293945 -114.34446289 45.60293945 -113.1875 45.5625 C-108.197349 45.81665738 -108.197349 45.81665738 -104 44.125 C-101.66702567 44.08407063 -99.33294775 44.08258277 -97 44.125 C-97 43.465 -97 42.805 -97 42.125 C-92.8803623 40.83256464 -89.33168317 39.86247375 -85 40.125 C-85 39.465 -85 38.805 -85 38.125 C-83.68 38.125 -82.36 38.125 -81 38.125 C-81 37.465 -81 36.805 -81 36.125 C-79.68 36.125 -78.36 36.125 -77 36.125 C-77 35.465 -77 34.805 -77 34.125 C-75.68 34.125 -74.36 34.125 -73 34.125 C-73 33.465 -73 32.805 -73 32.125 C-70 30.125 -70 30.125 -67 30.125 C-67 29.465 -67 28.805 -67 28.125 C-64 26.125 -64 26.125 -61 26.125 C-61 25.465 -61 24.805 -61 24.125 C-60.34 24.125 -59.68 24.125 -59 24.125 C-59 23.465 -59 22.805 -59 22.125 C-57.68 22.125 -56.36 22.125 -55 22.125 C-55 21.465 -55 20.805 -55 20.125 C-54.34 20.125 -53.68 20.125 -53 20.125 C-53 19.465 -53 18.805 -53 18.125 C-51.02 17.465 -49.04 16.805 -47 16.125 C-47 15.465 -47 14.805 -47 14.125 C-44 12.125 -44 12.125 -41 12.125 C-41 11.465 -41 10.805 -41 10.125 C-39.68 10.125 -38.36 10.125 -37 10.125 C-37 9.465 -37 8.805 -37 8.125 C-35.68 8.125 -34.36 8.125 -33 8.125 C-33 7.465 -33 6.805 -33 6.125 C-28.8794254 4.12714565 -25.54805635 3.94664485 -21 4.125 C-21 3.465 -21 2.805 -21 2.125 C-20.08476563 2.06441406 -19.16953125 2.00382812 -18.2265625 1.94140625 C-16.44378906 1.81572266 -16.44378906 1.81572266 -14.625 1.6875 C-13.44164063 1.60628906 -12.25828125 1.52507812 -11.0390625 1.44140625 C-7.09581288 1.03086227 -4.10946582 -0.00987852 0 0 Z " fill="#2D6BA3" transform="translate(128,360.875)"/>
<path d="M0 0 C0.91245483 -0.00350464 1.82490967 -0.00700928 2.76501465 -0.01062012 C5.78612845 -0.0194345 8.80700875 -0.01358927 11.828125 -0.00683594 C13.9241541 -0.00818267 16.0201829 -0.01012327 18.11621094 -0.01263428 C22.51109793 -0.01558514 26.90590369 -0.01128906 31.30078125 -0.00195312 C36.94023098 0.00944135 42.57949036 0.00288168 48.21893311 -0.00909805 C52.54770345 -0.01631763 56.8764285 -0.01402826 61.2052002 -0.00884247 C63.28487165 -0.00750625 65.36454718 -0.00915273 67.44421387 -0.01380157 C70.34833706 -0.01886836 73.25214997 -0.01115433 76.15625 0 C77.01972046 -0.00404846 77.88319092 -0.00809692 78.77282715 -0.01226807 C84.73532887 0.03025831 84.73532887 0.03025831 88.078125 2.25878906 C88.40625 4.82519531 88.40625 4.82519531 88.328125 7.82128906 C88.31265625 8.81257813 88.2971875 9.80386719 88.28125 10.82519531 C88.078125 13.25878906 88.078125 13.25878906 87.078125 14.25878906 C85.5000098 14.46920442 83.91477122 14.62735091 82.328125 14.75878906 C78.85000261 15.07271701 75.48578834 15.46366762 72.078125 16.25878906 C72.078125 16.91878906 72.078125 17.57878906 72.078125 18.25878906 C71.418125 18.25878906 70.758125 18.25878906 70.078125 18.25878906 C70.42808356 24.93213685 71.08160947 30.265758 74.078125 36.25878906 C75.68645344 39.8140414 76.30168383 42.34650954 76.078125 46.25878906 C76.738125 46.25878906 77.398125 46.25878906 78.078125 46.25878906 C79.68167601 49.76655691 80.29849364 52.40233785 80.078125 56.25878906 C80.738125 56.25878906 81.398125 56.25878906 82.078125 56.25878906 C83.68167601 59.76655691 84.29849364 62.40233785 84.078125 66.25878906 C84.738125 66.25878906 85.398125 66.25878906 86.078125 66.25878906 C86.078125 67.57878906 86.078125 68.89878906 86.078125 70.25878906 C86.738125 70.25878906 87.398125 70.25878906 88.078125 70.25878906 C88.078125 72.23878906 88.078125 74.21878906 88.078125 76.25878906 C88.738125 76.25878906 89.398125 76.25878906 90.078125 76.25878906 C90.078125 77.57878906 90.078125 78.89878906 90.078125 80.25878906 C90.738125 80.25878906 91.398125 80.25878906 92.078125 80.25878906 C93.39439192 83.87852308 94.078125 86.35446037 94.078125 90.25878906 C94.738125 90.25878906 95.398125 90.25878906 96.078125 90.25878906 C97.39439192 93.87852308 98.078125 96.35446037 98.078125 100.25878906 C98.738125 100.25878906 99.398125 100.25878906 100.078125 100.25878906 C101.39439192 103.87852308 102.078125 106.35446037 102.078125 110.25878906 C102.738125 110.25878906 103.398125 110.25878906 104.078125 110.25878906 C105.68167601 113.76655691 106.29849364 116.40233785 106.078125 120.25878906 C106.738125 120.25878906 107.398125 120.25878906 108.078125 120.25878906 C109.68167601 123.76655691 110.29849364 126.40233785 110.078125 130.25878906 C110.738125 130.25878906 111.398125 130.25878906 112.078125 130.25878906 C113.068125 132.56878906 114.058125 134.87878906 115.078125 137.25878906 C115.408125 135.60878906 115.738125 133.95878906 116.078125 132.25878906 C116.738125 132.25878906 117.398125 132.25878906 118.078125 132.25878906 C118.078125 130.93878906 118.078125 129.61878906 118.078125 128.25878906 C118.738125 128.25878906 119.398125 128.25878906 120.078125 128.25878906 C120.036875 127.53691406 119.995625 126.81503906 119.953125 126.07128906 C120.08733805 123.05149537 120.82983119 120.98943177 122.078125 118.25878906 C122.738125 118.25878906 123.398125 118.25878906 124.078125 118.25878906 C124.036875 117.53691406 123.995625 116.81503906 123.953125 116.07128906 C124.08733805 113.05149537 124.82983119 110.98943177 126.078125 108.25878906 C126.738125 108.25878906 127.398125 108.25878906 128.078125 108.25878906 C128.078125 106.93878906 128.078125 105.61878906 128.078125 104.25878906 C128.738125 104.25878906 129.398125 104.25878906 130.078125 104.25878906 C130.078125 102.27878906 130.078125 100.29878906 130.078125 98.25878906 C130.738125 98.25878906 131.398125 98.25878906 132.078125 98.25878906 C132.078125 96.93878906 132.078125 95.61878906 132.078125 94.25878906 C132.738125 94.25878906 133.398125 94.25878906 134.078125 94.25878906 C134.036875 93.53691406 133.995625 92.81503906 133.953125 92.07128906 C134.08733805 89.05149537 134.82983119 86.98943177 136.078125 84.25878906 C136.738125 84.25878906 137.398125 84.25878906 138.078125 84.25878906 C138.2225 83.53691406 138.366875 82.81503906 138.515625 82.07128906 C139.296875 78.16503906 139.296875 78.16503906 140.078125 74.25878906 C140.738125 74.25878906 141.398125 74.25878906 142.078125 74.25878906 C142.078125 72.93878906 142.078125 71.61878906 142.078125 70.25878906 C142.738125 70.25878906 143.398125 70.25878906 144.078125 70.25878906 C144.078125 69.59878906 144.078125 68.93878906 144.078125 68.25878906 C143.418125 68.25878906 142.758125 68.25878906 142.078125 68.25878906 C140.47457399 64.75102122 139.85775636 62.11524027 140.078125 58.25878906 C139.418125 58.25878906 138.758125 58.25878906 138.078125 58.25878906 C136.76185808 54.63905504 136.078125 52.16311775 136.078125 48.25878906 C135.418125 48.25878906 134.758125 48.25878906 134.078125 48.25878906 C134.078125 46.27878906 134.078125 44.29878906 134.078125 42.25878906 C133.418125 42.25878906 132.758125 42.25878906 132.078125 42.25878906 C132.078125 40.93878906 132.078125 39.61878906 132.078125 38.25878906 C131.418125 38.25878906 130.758125 38.25878906 130.078125 38.25878906 C129.81257812 37.57171875 129.54703125 36.88464844 129.2734375 36.17675781 C128.74363281 34.82517578 128.74363281 34.82517578 128.203125 33.44628906 C127.85507813 32.55296875 127.50703125 31.65964844 127.1484375 30.73925781 C126.08980345 28.08167315 126.08980345 28.08167315 124.078125 25.25878906 C124.078125 24.26878906 124.078125 23.27878906 124.078125 22.25878906 C123.418125 22.25878906 122.758125 22.25878906 122.078125 22.25878906 C122.078125 21.59878906 122.078125 20.93878906 122.078125 20.25878906 C121.418125 20.25878906 120.758125 20.25878906 120.078125 20.25878906 C120.078125 19.59878906 120.078125 18.93878906 120.078125 18.25878906 C119.418125 18.25878906 118.758125 18.25878906 118.078125 18.25878906 C118.078125 17.59878906 118.078125 16.93878906 118.078125 16.25878906 C116.098125 16.25878906 114.118125 16.25878906 112.078125 16.25878906 C112.078125 15.59878906 112.078125 14.93878906 112.078125 14.25878906 C111.29566406 14.27039063 110.51320313 14.28199219 109.70703125 14.29394531 C108.18916016 14.30748047 108.18916016 14.30748047 106.640625 14.32128906 C105.63128906 14.33289063 104.62195313 14.34449219 103.58203125 14.35644531 C101.078125 14.25878906 101.078125 14.25878906 100.078125 13.25878906 C99.92720587 11.45066182 99.85643492 9.63548289 99.828125 7.82128906 C99.80234375 6.83257812 99.7765625 5.84386719 99.75 4.82519531 C99.85828125 3.97828125 99.9665625 3.13136719 100.078125 2.25878906 C103.19637065 0.17995863 103.87384183 0.00829106 107.41163635 0.00482178 C108.2963562 -0.00081787 109.18107605 -0.00645752 110.09260559 -0.01226807 C111.06050522 -0.0082196 112.02840485 -0.00417114 113.02563477 0 C114.04698517 -0.00350464 115.06833557 -0.00700928 116.12063599 -0.01062012 C119.50366978 -0.01943774 122.88649525 -0.01358852 126.26953125 -0.00683594 C128.61457866 -0.00818247 130.95962579 -0.01012291 133.30467224 -0.01263428 C138.22161515 -0.0155855 143.13848545 -0.01128751 148.05541992 -0.00195312 C154.36980491 0.00944762 160.68402001 0.0028779 166.99839878 -0.00909805 C171.84097076 -0.01631132 176.68350219 -0.01403129 181.52607536 -0.00884247 C183.85498004 -0.00750482 186.18388835 -0.00915769 188.51278877 -0.01380157 C191.76196225 -0.0188587 195.01085714 -0.01116823 198.26000977 0 C199.71489555 -0.00607269 199.71489555 -0.00607269 201.19917297 -0.01226807 C202.081073 -0.00662842 202.96297302 -0.00098877 203.87159729 0.00482178 C205.02444639 0.00595285 205.02444639 0.00595285 206.20058537 0.00710678 C208.078125 0.25878906 208.078125 0.25878906 210.078125 2.25878906 C210.2734375 5.07910156 210.2734375 5.07910156 210.203125 8.38378906 C210.18507813 9.47949219 210.16703125 10.57519531 210.1484375 11.70410156 C210.12523437 12.54714844 210.10203125 13.39019531 210.078125 14.25878906 C209.15128906 14.319375 208.22445312 14.37996094 207.26953125 14.44238281 C206.07199219 14.52617188 204.87445313 14.60996094 203.640625 14.69628906 C202.44566406 14.7775 201.25070312 14.85871094 200.01953125 14.94238281 C197.19242256 14.9353502 197.19242256 14.9353502 196.078125 16.25878906 C194.07854136 16.29959689 192.07767246 16.30133263 190.078125 16.25878906 C190.078125 16.91878906 190.078125 17.57878906 190.078125 18.25878906 C189.418125 18.25878906 188.758125 18.25878906 188.078125 18.25878906 C188.078125 20.89878906 188.078125 23.53878906 188.078125 26.25878906 C188.738125 26.25878906 189.398125 26.25878906 190.078125 26.25878906 C190.078125 28.23878906 190.078125 30.21878906 190.078125 32.25878906 C190.738125 32.25878906 191.398125 32.25878906 192.078125 32.25878906 C192.28308594 32.9690625 192.48804688 33.67933594 192.69921875 34.41113281 C193.10333984 35.78978516 193.10333984 35.78978516 193.515625 37.19628906 C193.78246094 38.1128125 194.04929687 39.02933594 194.32421875 39.97363281 C194.86838551 42.19903837 194.86838551 42.19903837 196.078125 43.25878906 C196.11876332 44.92496021 196.120846 46.59267001 196.078125 48.25878906 C196.738125 48.25878906 197.398125 48.25878906 198.078125 48.25878906 C199.68167601 51.76655691 200.29849364 54.40233785 200.078125 58.25878906 C200.738125 58.25878906 201.398125 58.25878906 202.078125 58.25878906 C202.078125 60.23878906 202.078125 62.21878906 202.078125 64.25878906 C202.738125 64.25878906 203.398125 64.25878906 204.078125 64.25878906 C205.68167601 67.76655691 206.29849364 70.40233785 206.078125 74.25878906 C206.738125 74.25878906 207.398125 74.25878906 208.078125 74.25878906 C209.68167601 77.76655691 210.29849364 80.40233785 210.078125 84.25878906 C210.738125 84.25878906 211.398125 84.25878906 212.078125 84.25878906 C212.078125 86.23878906 212.078125 88.21878906 212.078125 90.25878906 C212.738125 90.25878906 213.398125 90.25878906 214.078125 90.25878906 C215.68167601 93.76655691 216.29849364 96.40233785 216.078125 100.25878906 C216.738125 100.25878906 217.398125 100.25878906 218.078125 100.25878906 C219.68167601 103.76655691 220.29849364 106.40233785 220.078125 110.25878906 C220.738125 110.25878906 221.398125 110.25878906 222.078125 110.25878906 C222.078125 112.23878906 222.078125 114.21878906 222.078125 116.25878906 C222.738125 116.25878906 223.398125 116.25878906 224.078125 116.25878906 C225.68167601 119.76655691 226.29849364 122.40233785 226.078125 126.25878906 C226.738125 126.25878906 227.398125 126.25878906 228.078125 126.25878906 C228.408125 127.90878906 228.738125 129.55878906 229.078125 131.25878906 C230.068125 128.94878906 231.058125 126.63878906 232.078125 124.25878906 C232.738125 124.25878906 233.398125 124.25878906 234.078125 124.25878906 C234.078125 122.27878906 234.078125 120.29878906 234.078125 118.25878906 C234.738125 118.25878906 235.398125 118.25878906 236.078125 118.25878906 C236.036875 117.53691406 235.995625 116.81503906 235.953125 116.07128906 C236.08733805 113.05149537 236.82983119 110.98943177 238.078125 108.25878906 C238.738125 108.25878906 239.398125 108.25878906 240.078125 108.25878906 C240.078125 106.27878906 240.078125 104.29878906 240.078125 102.25878906 C240.738125 102.25878906 241.398125 102.25878906 242.078125 102.25878906 C242.2225 101.53691406 242.366875 100.81503906 242.515625 100.07128906 C243.03645833 97.4671224 243.55729167 94.86295573 244.078125 92.25878906 C244.738125 92.25878906 245.398125 92.25878906 246.078125 92.25878906 C245.9853125 91.20691406 245.9853125 91.20691406 245.890625 90.13378906 C246.12181241 86.58891543 247.44697623 84.3905947 249.078125 81.25878906 C249.77719914 78.52306321 249.77719914 78.52306321 250.078125 76.25878906 C250.738125 76.25878906 251.398125 76.25878906 252.078125 76.25878906 C252.01625 75.17597656 252.01625 75.17597656 251.953125 74.07128906 C252.08733805 71.05149537 252.82983119 68.98943177 254.078125 66.25878906 C254.738125 66.25878906 255.398125 66.25878906 256.078125 66.25878906 C256.078125 64.27878906 256.078125 62.29878906 256.078125 60.25878906 C256.738125 60.25878906 257.398125 60.25878906 258.078125 60.25878906 C258.01625 59.17597656 258.01625 59.17597656 257.953125 58.07128906 C258.08733805 55.05149537 258.82983119 52.98943177 260.078125 50.25878906 C260.738125 50.25878906 261.398125 50.25878906 262.078125 50.25878906 C262.078125 48.27878906 262.078125 46.29878906 262.078125 44.25878906 C262.738125 44.25878906 263.398125 44.25878906 264.078125 44.25878906 C263.9853125 43.23785156 263.9853125 43.23785156 263.890625 42.19628906 C264.08732201 39.11470263 265.04634017 37.19241252 266.34375 34.43847656 C267.87190007 29.9027971 267.85192365 25.00901735 268.078125 20.25878906 C267.418125 20.25878906 266.758125 20.25878906 266.078125 20.25878906 C266.078125 19.59878906 266.078125 18.93878906 266.078125 18.25878906 C265.418125 18.25878906 264.758125 18.25878906 264.078125 18.25878906 C264.078125 17.59878906 264.078125 16.93878906 264.078125 16.25878906 C263.27375 16.27941406 262.469375 16.30003906 261.640625 16.32128906 C259.078125 16.25878906 259.078125 16.25878906 258.078125 15.25878906 C256.39628552 15.02591898 254.7068834 14.8461474 253.015625 14.69628906 C252.09652344 14.6125 251.17742187 14.52871094 250.23046875 14.44238281 C249.52019531 14.38179687 248.80992187 14.32121094 248.078125 14.25878906 C248.05126562 12.1130227 248.03179412 9.96716261 248.015625 7.82128906 C248.00402344 6.62632813 247.99242187 5.43136719 247.98046875 4.20019531 C248.078125 1.25878906 248.078125 1.25878906 249.078125 0.25878906 C250.87246509 0.15456267 252.6709097 0.12024817 254.46826172 0.11352539 C255.61970673 0.10714554 256.77115173 0.10076569 257.95748901 0.0941925 C259.21159576 0.09307968 260.46570251 0.09196686 261.7578125 0.09082031 C263.03665314 0.08749191 264.31549377 0.08416351 265.63308716 0.08073425 C268.345081 0.07473643 271.05704295 0.07289496 273.76904297 0.07348633 C277.24503309 0.07358786 280.72081854 0.05994762 284.19676018 0.04271412 C287.50878088 0.02892124 290.82076342 0.02950528 294.1328125 0.02832031 C296.00789993 0.01754204 296.00789993 0.01754204 297.92086792 0.00654602 C299.07861725 0.00962265 300.23636658 0.01269928 301.42919922 0.01586914 C302.44988495 0.01444412 303.47057068 0.0130191 304.52218628 0.0115509 C307.078125 0.25878906 307.078125 0.25878906 310.078125 2.25878906 C310.37109375 4.86035156 310.37109375 4.86035156 310.265625 7.88378906 C310.23855469 8.88667969 310.21148437 9.88957031 310.18359375 10.92285156 C310.13138672 12.07914063 310.13138672 12.07914063 310.078125 13.25878906 C308.83149169 13.76712497 307.58063113 14.26510051 306.328125 14.75878906 C305.63203125 15.03722656 304.9359375 15.31566406 304.21875 15.60253906 C302.078125 16.25878906 302.078125 16.25878906 298.078125 16.25878906 C298.078125 16.91878906 298.078125 17.57878906 298.078125 18.25878906 C297.418125 18.25878906 296.758125 18.25878906 296.078125 18.25878906 C296.078125 18.91878906 296.078125 19.57878906 296.078125 20.25878906 C295.418125 20.25878906 294.758125 20.25878906 294.078125 20.25878906 C293.94535156 20.83113281 293.81257813 21.40347656 293.67578125 21.99316406 C293.08432183 24.23529781 292.34523646 26.34458525 291.515625 28.50878906 C291.11150391 29.56839844 291.11150391 29.56839844 290.69921875 30.64941406 C290.39177734 31.44605469 290.39177734 31.44605469 290.078125 32.25878906 C289.418125 32.25878906 288.758125 32.25878906 288.078125 32.25878906 C288.14 33.34160156 288.14 33.34160156 288.203125 34.44628906 C288.06891195 37.46608276 287.32641881 39.52814636 286.078125 42.25878906 C285.418125 42.25878906 284.758125 42.25878906 284.078125 42.25878906 C284.14 43.34160156 284.14 43.34160156 284.203125 44.44628906 C284.06891195 47.46608276 283.32641881 49.52814636 282.078125 52.25878906 C281.418125 52.25878906 280.758125 52.25878906 280.078125 52.25878906 C280.078125 54.23878906 280.078125 56.21878906 280.078125 58.25878906 C279.418125 58.25878906 278.758125 58.25878906 278.078125 58.25878906 C277.93375 58.98066406 277.789375 59.70253906 277.640625 60.44628906 C277.11979167 63.05045573 276.59895833 65.6546224 276.078125 68.25878906 C275.418125 68.25878906 274.758125 68.25878906 274.078125 68.25878906 C274.1709375 69.31066406 274.1709375 69.31066406 274.265625 70.38378906 C274.03443759 73.9286627 272.70927377 76.12698343 271.078125 79.25878906 C270.37905086 81.99451491 270.37905086 81.99451491 270.078125 84.25878906 C269.418125 84.25878906 268.758125 84.25878906 268.078125 84.25878906 C268.14 85.34160156 268.14 85.34160156 268.203125 86.44628906 C268.06891195 89.46608276 267.32641881 91.52814636 266.078125 94.25878906 C265.418125 94.25878906 264.758125 94.25878906 264.078125 94.25878906 C264.078125 96.23878906 264.078125 98.21878906 264.078125 100.25878906 C263.418125 100.25878906 262.758125 100.25878906 262.078125 100.25878906 C262.14 101.34160156 262.14 101.34160156 262.203125 102.44628906 C262.06891195 105.46608276 261.32641881 107.52814636 260.078125 110.25878906 C259.418125 110.25878906 258.758125 110.25878906 258.078125 110.25878906 C258.078125 112.23878906 258.078125 114.21878906 258.078125 116.25878906 C257.418125 116.25878906 256.758125 116.25878906 256.078125 116.25878906 C255.93375 116.98066406 255.789375 117.70253906 255.640625 118.44628906 C255.11979167 121.05045573 254.59895833 123.6546224 254.078125 126.25878906 C253.418125 126.25878906 252.758125 126.25878906 252.078125 126.25878906 C252.1709375 127.31066406 252.1709375 127.31066406 252.265625 128.38378906 C252.03443759 131.9286627 250.70927377 134.12698343 249.078125 137.25878906 C248.37905086 139.99451491 248.37905086 139.99451491 248.078125 142.25878906 C247.418125 142.25878906 246.758125 142.25878906 246.078125 142.25878906 C246.119375 142.98066406 246.160625 143.70253906 246.203125 144.44628906 C246.06891195 147.46608276 245.32641881 149.52814636 244.078125 152.25878906 C243.418125 152.25878906 242.758125 152.25878906 242.078125 152.25878906 C242.078125 154.23878906 242.078125 156.21878906 242.078125 158.25878906 C241.418125 158.25878906 240.758125 158.25878906 240.078125 158.25878906 C240.119375 158.98066406 240.160625 159.70253906 240.203125 160.44628906 C240.06891195 163.46608276 239.32641881 165.52814636 238.078125 168.25878906 C237.418125 168.25878906 236.758125 168.25878906 236.078125 168.25878906 C236.078125 169.57878906 236.078125 170.89878906 236.078125 172.25878906 C235.418125 172.25878906 234.758125 172.25878906 234.078125 172.25878906 C233.789375 173.04253906 233.500625 173.82628906 233.203125 174.63378906 C232.078125 177.25878906 232.078125 177.25878906 230.078125 179.25878906 C229.24804036 181.44536884 229.24804036 181.44536884 228.578125 183.94628906 C228.32289063 184.84089844 228.06765625 185.73550781 227.8046875 186.65722656 C227.56492187 187.51574219 227.32515625 188.37425781 227.078125 189.25878906 C226.52125 191.14597656 226.52125 191.14597656 225.953125 193.07128906 C225.20596915 195.7930711 224.58275468 198.48332581 224.078125 201.25878906 C223.418125 201.25878906 222.758125 201.25878906 222.078125 201.25878906 C221.89636719 201.82726562 221.71460938 202.39574219 221.52734375 202.98144531 C219.93599002 207.86975754 218.15710093 212.55849566 216.078125 217.25878906 C215.706875 218.20753906 215.335625 219.15628906 214.953125 220.13378906 C214.078125 222.25878906 214.078125 222.25878906 213.078125 223.25878906 C210.74515067 223.29971844 208.41107275 223.30120629 206.078125 223.25878906 C203.07545235 217.01607833 200.51832015 211.01825092 198.94921875 204.25488281 C198.22456107 202.07394781 198.22456107 202.07394781 195.98828125 200.98144531 C195.35792969 200.74296875 194.72757813 200.50449219 194.078125 200.25878906 C194.078125 199.59878906 194.078125 198.93878906 194.078125 198.25878906 C193.418125 198.25878906 192.758125 198.25878906 192.078125 198.25878906 C192.078125 196.27878906 192.078125 194.29878906 192.078125 192.25878906 C191.418125 192.25878906 190.758125 192.25878906 190.078125 192.25878906 C188.47457399 188.75102122 187.85775636 186.11524027 188.078125 182.25878906 C187.418125 182.25878906 186.758125 182.25878906 186.078125 182.25878906 C184.76185808 178.63905504 184.078125 176.16311775 184.078125 172.25878906 C183.418125 172.25878906 182.758125 172.25878906 182.078125 172.25878906 C182.078125 170.27878906 182.078125 168.29878906 182.078125 166.25878906 C181.418125 166.25878906 180.758125 166.25878906 180.078125 166.25878906 C178.47457399 162.75102122 177.85775636 160.11524027 178.078125 156.25878906 C177.418125 156.25878906 176.758125 156.25878906 176.078125 156.25878906 C175.87316406 155.54851562 175.66820312 154.83824219 175.45703125 154.10644531 C175.18761719 153.18734375 174.91820312 152.26824219 174.640625 151.32128906 C174.37378906 150.40476563 174.10695313 149.48824219 173.83203125 148.54394531 C173.28786449 146.31853976 173.28786449 146.31853976 172.078125 145.25878906 C172.03748668 143.59261791 172.035404 141.92490811 172.078125 140.25878906 C171.418125 140.25878906 170.758125 140.25878906 170.078125 140.25878906 C168.47457399 136.75102122 167.85775636 134.11524027 168.078125 130.25878906 C167.418125 130.25878906 166.758125 130.25878906 166.078125 130.25878906 C166.078125 128.27878906 166.078125 126.29878906 166.078125 124.25878906 C165.418125 124.25878906 164.758125 124.25878906 164.078125 124.25878906 C162.47457399 120.75102122 161.85775636 118.11524027 162.078125 114.25878906 C161.418125 114.25878906 160.758125 114.25878906 160.078125 114.25878906 C158.47457399 110.75102122 157.85775636 108.11524027 158.078125 104.25878906 C157.418125 104.25878906 156.758125 104.25878906 156.078125 104.25878906 C156.078125 102.27878906 156.078125 100.29878906 156.078125 98.25878906 C154.758125 98.25878906 153.438125 98.25878906 152.078125 98.25878906 C152.078125 99.57878906 152.078125 100.89878906 152.078125 102.25878906 C151.418125 102.25878906 150.758125 102.25878906 150.078125 102.25878906 C150.119375 102.98066406 150.160625 103.70253906 150.203125 104.44628906 C150.06891195 107.46608276 149.32641881 109.52814636 148.078125 112.25878906 C147.418125 112.25878906 146.758125 112.25878906 146.078125 112.25878906 C146.078125 113.57878906 146.078125 114.89878906 146.078125 116.25878906 C145.418125 116.25878906 144.758125 116.25878906 144.078125 116.25878906 C144.119375 116.98066406 144.160625 117.70253906 144.203125 118.44628906 C144.06891195 121.46608276 143.32641881 123.52814636 142.078125 126.25878906 C141.418125 126.25878906 140.758125 126.25878906 140.078125 126.25878906 C139.93375 126.98066406 139.789375 127.70253906 139.640625 128.44628906 C139.11979167 131.05045573 138.59895833 133.6546224 138.078125 136.25878906 C137.418125 136.25878906 136.758125 136.25878906 136.078125 136.25878906 C136.078125 137.57878906 136.078125 138.89878906 136.078125 140.25878906 C135.418125 140.25878906 134.758125 140.25878906 134.078125 140.25878906 C134.119375 140.98066406 134.160625 141.70253906 134.203125 142.44628906 C134.06891195 145.46608276 133.32641881 147.52814636 132.078125 150.25878906 C131.418125 150.25878906 130.758125 150.25878906 130.078125 150.25878906 C130.078125 151.57878906 130.078125 152.89878906 130.078125 154.25878906 C129.418125 154.25878906 128.758125 154.25878906 128.078125 154.25878906 C128.119375 154.98066406 128.160625 155.70253906 128.203125 156.44628906 C128.06891195 159.46608276 127.32641881 161.52814636 126.078125 164.25878906 C125.418125 164.25878906 124.758125 164.25878906 124.078125 164.25878906 C124.078125 165.57878906 124.078125 166.89878906 124.078125 168.25878906 C123.418125 168.25878906 122.758125 168.25878906 122.078125 168.25878906 C122.119375 168.98066406 122.160625 169.70253906 122.203125 170.44628906 C122.06891195 173.46608276 121.32641881 175.52814636 120.078125 178.25878906 C119.418125 178.25878906 118.758125 178.25878906 118.078125 178.25878906 C117.93375 178.98066406 117.789375 179.70253906 117.640625 180.44628906 C117.11979167 183.05045573 116.59895833 185.6546224 116.078125 188.25878906 C115.418125 188.25878906 114.758125 188.25878906 114.078125 188.25878906 C114.078125 189.57878906 114.078125 190.89878906 114.078125 192.25878906 C113.418125 192.25878906 112.758125 192.25878906 112.078125 192.25878906 C112.160625 193.00128906 112.243125 193.74378906 112.328125 194.50878906 C111.99957574 198.12283096 110.78418603 198.92856985 108.078125 201.25878906 C107.376875 201.81566406 106.675625 202.37253906 105.953125 202.94628906 C103.96197251 205.4020438 103.69556811 206.48512709 103.140625 209.50878906 C102.20334102 214.42341725 100.58591387 218.59723411 97.078125 222.25878906 C94.015625 223.13378906 94.015625 223.13378906 91.078125 222.25878906 C88.19964649 218.88685709 86.62900477 215.26581598 84.91430664 211.21411133 C84.04974135 209.19241689 83.15578429 207.18597171 82.25390625 205.18066406 C81.94775391 204.49488281 81.64160156 203.80910156 81.32617188 203.10253906 C80.69470142 201.68931083 80.05918398 200.27788493 79.41992188 198.86816406 C77.078125 193.59537622 77.078125 193.59537622 77.078125 190.25878906 C76.088125 189.92878906 75.098125 189.59878906 74.078125 189.25878906 C73.234375 187.58691406 73.234375 187.58691406 72.578125 185.50878906 C71.43064688 182.12099651 69.96238054 179.3094885 68.078125 176.25878906 C68.078125 175.59878906 68.078125 174.93878906 68.078125 174.25878906 C67.088125 173.92878906 66.098125 173.59878906 65.078125 173.25878906 C64.583125 168.80378906 64.583125 168.80378906 64.078125 164.25878906 C63.418125 164.25878906 62.758125 164.25878906 62.078125 164.25878906 C60.76185808 160.63905504 60.078125 158.16311775 60.078125 154.25878906 C59.418125 154.25878906 58.758125 154.25878906 58.078125 154.25878906 C56.76185808 150.63905504 56.078125 148.16311775 56.078125 144.25878906 C55.418125 144.25878906 54.758125 144.25878906 54.078125 144.25878906 C52.76185808 140.63905504 52.078125 138.16311775 52.078125 134.25878906 C51.418125 134.25878906 50.758125 134.25878906 50.078125 134.25878906 C48.47457399 130.75102122 47.85775636 128.11524027 48.078125 124.25878906 C47.418125 124.25878906 46.758125 124.25878906 46.078125 124.25878906 C44.47457399 120.75102122 43.85775636 118.11524027 44.078125 114.25878906 C43.418125 114.25878906 42.758125 114.25878906 42.078125 114.25878906 C40.47457399 110.75102122 39.85775636 108.11524027 40.078125 104.25878906 C39.418125 104.25878906 38.758125 104.25878906 38.078125 104.25878906 C36.47457399 100.75102122 35.85775636 98.11524027 36.078125 94.25878906 C35.418125 94.25878906 34.758125 94.25878906 34.078125 94.25878906 C32.47457399 90.75102122 31.85775636 88.11524027 32.078125 84.25878906 C31.418125 84.25878906 30.758125 84.25878906 30.078125 84.25878906 C28.47457399 80.75102122 27.85775636 78.11524027 28.078125 74.25878906 C27.418125 74.25878906 26.758125 74.25878906 26.078125 74.25878906 C24.47457399 70.75102122 23.85775636 68.11524027 24.078125 64.25878906 C23.418125 64.25878906 22.758125 64.25878906 22.078125 64.25878906 C20.47457399 60.75102122 19.85775636 58.11524027 20.078125 54.25878906 C19.418125 54.25878906 18.758125 54.25878906 18.078125 54.25878906 C18.078125 52.93878906 18.078125 51.61878906 18.078125 50.25878906 C17.418125 50.25878906 16.758125 50.25878906 16.078125 50.25878906 C16.078125 48.27878906 16.078125 46.29878906 16.078125 44.25878906 C15.418125 44.25878906 14.758125 44.25878906 14.078125 44.25878906 C14.078125 42.93878906 14.078125 41.61878906 14.078125 40.25878906 C13.418125 40.25878906 12.758125 40.25878906 12.078125 40.25878906 C11.40284277 38.67911099 10.73822806 37.09487003 10.078125 35.50878906 C9.706875 34.62707031 9.335625 33.74535156 8.953125 32.83691406 C8.078125 30.25878906 8.078125 30.25878906 8.078125 26.25878906 C7.418125 26.25878906 6.758125 26.25878906 6.078125 26.25878906 C5.418125 24.27878906 4.758125 22.29878906 4.078125 20.25878906 C3.418125 20.25878906 2.758125 20.25878906 2.078125 20.25878906 C2.078125 19.59878906 2.078125 18.93878906 2.078125 18.25878906 C1.418125 18.25878906 0.758125 18.25878906 0.078125 18.25878906 C0.078125 17.59878906 0.078125 16.93878906 0.078125 16.25878906 C-3.90164576 15.41459527 -7.89194718 14.81191641 -11.921875 14.25878906 C-12.00269594 12.30112625 -12.06098278 10.34252179 -12.109375 8.38378906 C-12.14417969 7.29324219 -12.17898437 6.20269531 -12.21484375 5.07910156 C-12.11816406 4.14839844 -12.02148438 3.21769531 -11.921875 2.25878906 C-7.97164703 -0.37469625 -4.58391439 -0.02149211 0 0 Z " fill="#00B04F" transform="translate(106.921875,96.7412109375)"/>
<path d="M0 0 C0.6875 1.625 0.6875 1.625 1 4 C0.3503125 5.2684375 0.3503125 5.2684375 -0.3125 6.5625 C-2.59796928 11.21808556 -3.22931353 15.9044024 -4 21 C-4.66 21 -5.32 21 -6 21 C-6.18175781 21.56847656 -6.36351562 22.13695312 -6.55078125 22.72265625 C-8.14213498 27.61096848 -9.92102407 32.2997066 -12 37 C-12.37125 37.94875 -12.7425 38.8975 -13.125 39.875 C-14 42 -14 42 -15 43 C-17.33297433 43.04092937 -19.66705225 43.04241723 -22 43 C-22.86846831 41.25705322 -23.71930627 39.50531337 -24.5625 37.75 C-25.03816406 36.77546875 -25.51382812 35.8009375 -26.00390625 34.796875 C-27.03510273 31.90143703 -27.11346788 30.80033839 -26 28 C-25.32404685 29.41225926 -24.65959941 30.83002905 -24 32.25 C-23.62875 33.03890625 -23.2575 33.8278125 -22.875 34.640625 C-22 37 -22 37 -22 41 C-19.69 41 -17.38 41 -15 41 C-14.896875 39.989375 -14.79375 38.97875 -14.6875 37.9375 C-13.84153727 33.09244074 -12.16844413 29.13758843 -9.83203125 24.86328125 C-6.37949711 18.43625617 -4.56622524 12.18168271 -2.89453125 5.125 C-2 2 -2 2 0 0 Z " fill="#0D9B69" transform="translate(335,277)"/>
<path d="M0 0 C0.6875 1.625 0.6875 1.625 1 4 C0.3503125 5.2684375 0.3503125 5.2684375 -0.3125 6.5625 C-2.59796928 11.21808556 -3.22931353 15.9044024 -4 21 C-4.66 21 -5.32 21 -6 21 C-6.66 23.31 -7.32 25.62 -8 28 C-9.30734531 24.38803956 -8.67370656 22.44002447 -7.25 18.9375 C-5.36034282 14.08955193 -3.94316445 9.26697426 -2.7109375 4.21484375 C-2 2 -2 2 0 0 Z " fill="#0E9A69" transform="translate(335,277)"/>
<path d="M0 0 C2 1 2 1 3.21875 4.203125 C3.65337787 5.54967146 4.08012918 6.89877935 4.5 8.25 C5.8697558 12.5585046 7.252667 16.82581562 9 21 C11.31 21.33 13.62 21.66 16 22 C16 22.33 16 22.66 16 23 C13.36 23 10.72 23 8 23 C0 7.85375494 0 7.85375494 0 0 Z " fill="#207F8B" transform="translate(304,298)"/>
<path d="M0 0 C4.0296283 4.83555397 6.53699169 10.38402103 8.3125 16.375 C9.66270632 20.35039708 9.66270632 20.35039708 13.6875 21.5 C14.780625 21.665 15.87375 21.83 17 22 C17 22.33 17 22.66 17 23 C13.75 23.3125 13.75 23.3125 10 23 C6.63359364 19.55722903 4.97129839 15.97927893 3.3125 11.5 C2.89613281 10.3965625 2.47976562 9.293125 2.05078125 8.15625 C1.14320741 5.4301546 0.48007536 2.8276966 0 0 Z " fill="#1B8682" transform="translate(187,297)"/>
<path d="M0 0 C3.10218695 1.20640604 4.69880758 2.39365209 6.1875 5.390625 C6.88673523 7.19012744 7.55948543 9.0001842 8.203125 10.8203125 C8.80742449 12.94786486 8.80742449 12.94786486 10 14 C10.04080783 15.99958364 10.04254356 18.00045254 10 20 C8.0549 17.08235 7.54723683 15.37462715 7 12 C6.01 11.67 5.02 11.34 4 11 C3.0859375 9.2578125 3.0859375 9.2578125 2.375 7.125 C2.13523438 6.42632812 1.89546875 5.72765625 1.6484375 5.0078125 C1.43445313 4.34523438 1.22046875 3.68265625 1 3 C0.67 2.01 0.34 1.02 0 0 Z " fill="#1C8683" transform="translate(177,275)"/>
<path d="M0 0 C1.33332095 2.6666419 0.67102033 4.16680303 0 7 C-0.66 7 -1.32 7 -2 7 C-2.99 10.465 -2.99 10.465 -4 14 C-5.06528748 11.26980214 -5.07998186 10.20701188 -4.00390625 7.421875 C-3.52824219 6.54015625 -3.05257813 5.6584375 -2.5625 4.75 C-2.08941406 3.85796875 -1.61632812 2.9659375 -1.12890625 2.046875 C-0.75636719 1.37140625 -0.38382812 0.6959375 0 0 Z " fill="#1A8880" transform="translate(331,291)"/>
<path d="M0 0 C0.33 0.66 0.66 1.32 1 2 C0.29296875 3.91015625 0.29296875 3.91015625 -0.8125 6.0625 C-1.16957031 6.77535156 -1.52664062 7.48820312 -1.89453125 8.22265625 C-3 10 -3 10 -5 11 C-4.54663921 6.12637153 -3.2910841 3.60957611 0 0 Z " fill="#0F986C" transform="translate(209,306)"/>
<path d="M0 0 C3.11019741 1.55509871 3.69411606 3.85400688 5 7 C5.1875 10.375 5.1875 10.375 5 13 C3.09610151 10.14415227 2.30537823 8.0688238 1.375 4.8125 C0.98441406 3.46091797 0.98441406 3.46091797 0.5859375 2.08203125 C0.39257812 1.39496094 0.19921875 0.70789063 0 0 Z " fill="#0E996B" transform="translate(182,282)"/>
<path d="M0 0 C0.66 0.33 1.32 0.66 2 1 C1.1875 3.9375 1.1875 3.9375 0 7 C-0.99 7.33 -1.98 7.66 -3 8 C-2.45276317 4.62537285 -1.9451 2.91765 0 0 Z " fill="#1C8584" transform="translate(213,298)"/>
</svg>
